<?xml version="1.0" encoding="UTF-8"?>
<svg version="1.1" xmlns="http://www.w3.org/2000/svg" width="826" height="340">
<path d="M0 0 C272.58 0 545.16 0 826 0 C826 112.2 826 224.4 826 340 C553.42 340 280.84 340 0 340 C0 227.8 0 115.6 0 0 Z " fill="#675BD8" transform="translate(0,0)"/>
<path d="M0 0 C1.21700923 -0.00410527 2.43401847 -0.00821054 3.68790677 -0.0124402 C7.05467824 -0.02177579 10.42123524 -0.02224179 13.7880036 -0.01888502 C17.45521117 -0.01741655 21.1223906 -0.02748335 24.78958601 -0.03603506 C32.05789387 -0.05116105 39.32617234 -0.05557945 46.59449431 -0.05669317 C55.30266916 -0.0585238 64.01081697 -0.07186873 72.71898016 -0.08538682 C93.76309879 -0.11747566 114.80721448 -0.12930946 135.85135318 -0.13888432 C145.80925385 -0.14355894 155.76715221 -0.1507645 165.72505108 -0.15827507 C199.82184275 -0.18394219 233.91863315 -0.20538179 268.01543427 -0.21228027 C270.15497922 -0.21272354 272.29452417 -0.2131671 274.43406912 -0.21361098 C276.57872963 -0.21405226 278.72339013 -0.21449322 280.86805063 -0.21493387 C285.17048681 -0.21581897 289.47292298 -0.2167132 293.77535915 -0.21761322 C295.37548482 -0.21794139 295.37548482 -0.21794139 297.00793626 -0.2182762 C331.59811552 -0.22553762 366.18821095 -0.25738077 400.77835811 -0.30399395 C437.36221782 -0.35320357 473.94602962 -0.38062651 510.52992338 -0.38301611 C514.54705776 -0.38335901 518.56419212 -0.38378986 522.58132648 -0.38428497 C524.06498803 -0.38445228 524.06498803 -0.38445228 525.57862254 -0.38462297 C541.48419884 -0.38692258 557.38968898 -0.40895439 573.2952362 -0.43805908 C589.28642202 -0.46681423 605.27749757 -0.47324882 621.26870216 -0.45717913 C630.76344395 -0.44827876 640.25782938 -0.45593834 649.75252423 -0.48765614 C656.10279035 -0.50720423 662.45280774 -0.50475387 668.80307177 -0.48478368 C672.41613371 -0.47403392 676.02851307 -0.47246487 679.64151753 -0.49780113 C702.18105753 -0.64575212 719.80349684 1.56377217 736.95138454 17.41910553 C747.06236843 28.09073671 751.82432726 39.90264728 753.61935329 54.26285553 C484.00935329 54.26285553 214.39935329 54.26285553 -63.38064671 54.26285553 C-61.77229247 38.17931318 -55.0583342 23.74248512 -42.38064671 13.26285553 C-28.83491755 3.46979505 -16.59545814 -0.05247596 0 0 Z " fill="#FEFEFE" transform="translate(68.38064670562744,285.73714447021484)"/>
<path d="M0 0 C1.32 0 2.64 0 4 0 C4 112.2 4 224.4 4 340 C2.68 340 1.36 340 0 340 C0 227.8 0 115.6 0 0 Z " fill="#F5F5F5" transform="translate(0,0)"/>
<path d="M0 0 C0.99 0 1.98 0 3 0 C3 112.2 3 224.4 3 340 C2.01 340 1.02 340 0 340 C0 227.8 0 115.6 0 0 Z " fill="#F5F5F5" transform="translate(823,0)"/>
</svg>
