<svg width="21" height="21" viewBox="0 0 21 21" fill="none" xmlns="http://www.w3.org/2000/svg">
<rect width="21" height="21" rx="6.59227" fill="#D1FFE8"/>
<path d="M14 7.87502C14.0007 7.63582 13.936 7.40098 13.813 7.19586C13.6899 6.99075 13.5131 6.82317 13.3017 6.71123C13.0903 6.59929 12.8523 6.54725 12.6135 6.56074C12.3747 6.57422 12.1441 6.65272 11.9466 6.78774C11.7492 6.92276 11.5924 7.10918 11.4932 7.32684C11.394 7.54451 11.3562 7.78514 11.3838 8.02274C11.4114 8.26035 11.5035 8.48588 11.65 8.67498C11.7964 8.86407 11.9918 9.00954 12.215 9.09565C12.133 9.60809 11.8715 10.0747 11.4772 10.4121C11.0829 10.7495 10.5815 10.9357 10.0625 10.9375C9.58878 10.935 9.12744 11.0887 8.75 11.375V6.92127C9.04191 6.81807 9.28793 6.61499 9.44459 6.34794C9.60125 6.08089 9.65846 5.76705 9.6061 5.46189C9.55374 5.15674 9.3952 4.87992 9.15848 4.68035C8.92176 4.48079 8.62212 4.37134 8.3125 4.37134C8.00289 4.37134 7.70324 4.48079 7.46653 4.68035C7.22981 4.87992 7.07126 5.15674 7.0189 5.46189C6.96655 5.76705 7.02376 6.08089 7.18041 6.34794C7.33707 6.61499 7.5831 6.81807 7.875 6.92127V14.0788C7.5831 14.182 7.33707 14.3851 7.18041 14.6521C7.02376 14.9192 6.96655 15.233 7.0189 15.5382C7.07126 15.8433 7.22981 16.1201 7.46653 16.3197C7.70324 16.5193 8.00289 16.6287 8.3125 16.6287C8.62212 16.6287 8.92176 16.5193 9.15848 16.3197C9.3952 16.1201 9.55374 15.8433 9.6061 15.5382C9.65846 15.233 9.60125 14.9192 9.44459 14.6521C9.28793 14.3851 9.04191 14.182 8.75 14.0788V13.125C8.75 12.7769 8.88828 12.4431 9.13442 12.1969C9.38057 11.9508 9.71441 11.8125 10.0625 11.8125C10.8156 11.8178 11.5442 11.5455 12.1091 11.0475C12.6741 10.5496 13.0357 9.86092 13.125 9.11315C13.381 9.02264 13.6026 8.85495 13.7594 8.6332C13.9161 8.41146 14.0001 8.14656 14 7.87502ZM8.3125 5.25002C8.39903 5.25002 8.48362 5.27568 8.55556 5.32376C8.62751 5.37183 8.68359 5.44016 8.7167 5.5201C8.74981 5.60004 8.75848 5.68801 8.7416 5.77288C8.72472 5.85774 8.68305 5.9357 8.62186 5.99688C8.56068 6.05807 8.48272 6.09974 8.39785 6.11662C8.31299 6.1335 8.22502 6.12484 8.14508 6.09172C8.06514 6.05861 7.99681 6.00253 7.94873 5.93059C7.90066 5.85864 7.875 5.77405 7.875 5.68752C7.875 5.57149 7.9211 5.46021 8.00314 5.37817C8.08519 5.29612 8.19647 5.25002 8.3125 5.25002ZM8.3125 15.75C8.22597 15.75 8.14139 15.7244 8.06944 15.6763C7.99749 15.6282 7.94142 15.5599 7.90831 15.4799C7.87519 15.4 7.86653 15.312 7.88341 15.2272C7.90029 15.1423 7.94196 15.0644 8.00314 15.0032C8.06433 14.942 8.14228 14.9003 8.22715 14.8834C8.31202 14.8666 8.39998 14.8752 8.47993 14.9083C8.55987 14.9414 8.6282 14.9975 8.67627 15.0695C8.72434 15.1414 8.75 15.226 8.75 15.3125C8.75 15.4286 8.70391 15.5398 8.62186 15.6219C8.53981 15.7039 8.42853 15.75 8.3125 15.75ZM12.6875 8.31252C12.601 8.31252 12.5164 8.28687 12.4444 8.23879C12.3725 8.19072 12.3164 8.12239 12.2833 8.04245C12.2502 7.96251 12.2415 7.87454 12.2584 7.78967C12.2753 7.70481 12.317 7.62685 12.3781 7.56567C12.4393 7.50448 12.5173 7.46281 12.6021 7.44593C12.687 7.42905 12.775 7.43771 12.8549 7.47083C12.9349 7.50394 13.0032 7.56002 13.0513 7.63196C13.0993 7.70391 13.125 7.7885 13.125 7.87502C13.125 7.99106 13.0789 8.10234 12.9969 8.18438C12.9148 8.26643 12.8035 8.31252 12.6875 8.31252Z" fill="#008744"/>
</svg>
