<svg width="21" height="21" viewBox="0 0 21 21" fill="none" xmlns="http://www.w3.org/2000/svg">
<rect width="21" height="21" rx="6.59227" fill="#D1FFE8"/>
<path d="M12.8263 12.4243C12.9513 12.3363 13.015 12.1847 12.9902 12.0338L12.6223 9.77777L14.1778 8.1837C14.2822 8.07671 14.3181 7.92023 14.2705 7.77837C14.223 7.6365 14.1002 7.53302 13.9523 7.51061L11.8188 7.18459L10.861 5.14387C10.7954 5.00375 10.6545 4.91431 10.4997 4.91431C10.345 4.91431 10.2041 5.00375 10.1384 5.14387L9.18064 7.18459L7.04717 7.51061C6.89926 7.53302 6.77649 7.6365 6.72894 7.77837C6.68139 7.92023 6.71725 8.07672 6.8217 8.1837L8.37718 9.77777L8.00926 12.0338C7.98451 12.1847 8.04823 12.3363 8.17314 12.4243C8.29825 12.5124 8.46234 12.521 8.59622 12.4473L10.4997 11.3952L12.4033 12.4473C12.5363 12.5207 12.7021 12.5117 12.8263 12.4243ZM11.8021 9.70761L12.0702 11.3512L10.6929 10.59C10.5737 10.5241 10.4258 10.524 10.3066 10.59L8.92926 11.3512L9.19741 9.70761C9.21787 9.5825 9.17772 9.45525 9.08925 9.36463L7.9354 8.18214L9.51174 7.94147C9.64328 7.9212 9.7563 7.83682 9.81282 7.71639L10.4997 6.2527L11.1867 7.7164C11.2432 7.83683 11.3562 7.92121 11.4877 7.94148L13.0641 8.18215L11.9102 9.36464C11.8218 9.45526 11.7816 9.58251 11.8021 9.70761Z" fill="#008744"/>
<path d="M16.9524 15.9659L15.0891 12.5479C15.3284 12.3756 15.5331 12.1601 15.6841 11.8985C15.9542 11.4308 16.0318 10.8912 15.9108 10.3551C16.2836 9.9515 16.4862 9.44522 16.4862 8.90522C16.4862 8.36523 16.2836 7.85895 15.9108 7.45536C16.0318 6.91927 15.9542 6.37966 15.6841 5.91196C15.4142 5.44426 14.9857 5.10713 14.4609 4.94403C14.2978 4.41923 13.9607 3.9907 13.493 3.7208C13.0255 3.45071 12.4857 3.37354 11.9496 3.49417C11.546 3.12137 11.0397 2.9187 10.4997 2.9187C9.9597 2.9187 9.45342 3.12137 9.04984 3.49416C8.51393 3.37276 7.97394 3.45071 7.50644 3.7208C7.03874 3.9907 6.70161 4.41923 6.5385 4.94403C6.01371 5.10713 5.58518 5.44427 5.31528 5.91196C5.04518 6.37966 4.96763 6.91927 5.08864 7.45536C4.71585 7.85895 4.51318 8.36523 4.51318 8.90522C4.51318 9.44522 4.71585 9.9515 5.08864 10.3551C4.96762 10.8912 5.04518 11.4308 5.31528 11.8985C5.46626 12.1601 5.671 12.3756 5.91035 12.5479C5.91035 12.5479 4.04994 15.9606 4.04704 15.9659C3.90775 16.2214 4.09496 16.5452 4.3832 16.5558L5.96772 16.6125C5.96772 16.6125 6.86976 17.9109 6.87135 17.9133C7.03809 18.1533 7.40951 18.1324 7.54951 17.8766L9.36178 14.5566C9.70198 14.7747 10.091 14.8917 10.4997 14.8917C10.9084 14.8917 11.2974 14.7747 11.6376 14.5566C11.6376 14.5566 13.4456 17.8688 13.4499 17.8766C13.5886 18.1307 13.9633 18.1501 14.1281 17.9133L15.0317 16.6125C15.0317 16.6125 16.6125 16.5559 16.6162 16.5558C16.9077 16.5453 17.0922 16.222 16.9524 15.9659ZM7.15839 16.9272L6.50927 15.993C6.43756 15.8899 6.32141 15.8264 6.19572 15.8219L5.05688 15.7811L6.58464 12.9784C6.75942 13.4504 7.0737 13.8399 7.50644 14.0896C7.83005 14.2768 8.18923 14.365 8.55669 14.3654L7.15839 16.9272ZM11.5282 13.6058C10.9868 14.228 10.0192 14.2358 9.47121 13.6058C9.36907 13.4884 9.18737 13.4396 9.04032 13.4902C8.24263 13.7646 7.41865 13.2837 7.25856 12.4617C7.22757 12.3023 7.10269 12.1774 6.9433 12.1464C6.12069 11.9864 5.64218 11.1572 5.91471 10.3646C5.96752 10.2109 5.92192 10.0404 5.79917 9.93379C5.16304 9.38134 5.16491 8.42839 5.79915 7.87667C5.92192 7.77008 5.96752 7.59959 5.91471 7.44583C5.64135 6.64972 6.1222 5.82397 6.94325 5.66408C7.10266 5.63309 7.22755 5.50818 7.25856 5.34879C7.41902 4.52362 8.24336 4.04538 9.04029 4.32023C9.19366 4.37343 9.36434 4.32782 9.47114 4.20469C10.0232 3.56806 10.9764 3.57033 11.5282 4.20467C11.635 4.3278 11.8065 4.37343 11.9591 4.32023C12.7559 4.04248 13.5812 4.52906 13.7408 5.34877C13.7718 5.50815 13.8967 5.63307 14.0561 5.66405C14.8821 5.8247 15.3588 6.6487 15.0847 7.44581C15.0319 7.59954 15.0775 7.77003 15.2002 7.87663C15.8285 8.42227 15.8247 9.39053 15.2003 9.93376C15.0775 10.0403 15.0319 10.2108 15.0847 10.3646C15.3566 11.1564 14.8718 11.9875 14.0562 12.1464C13.8967 12.1773 13.7719 12.3022 13.7408 12.4616C13.5803 13.2872 12.7559 13.765 11.9591 13.4902C11.8065 13.4376 11.6351 13.483 11.5282 13.6058ZM14.8037 15.8219C14.678 15.8264 14.5618 15.8899 14.4901 15.993L13.841 16.9272L12.4425 14.365C12.81 14.3645 13.1691 14.2765 13.493 14.0896C13.9257 13.8399 14.24 13.4504 14.4148 12.9784L15.9425 15.7811L14.8037 15.8219Z" fill="#008744"/>
</svg>
