<svg width="50" height="50" viewBox="0 0 50 50" fill="none" xmlns="http://www.w3.org/2000/svg">
<path d="M37.8124 19.0516L37.1874 37.9688C37.1342 39.589 36.4517 41.1246 35.2848 42.2498C34.1179 43.375 32.5585 44.0011 30.9374 43.9954H19.0625C17.4425 44.0012 15.8839 43.3759 14.7172 42.252C13.5505 41.1282 12.8673 39.5941 12.8125 37.9751L12.1875 19.0516C12.1738 18.6372 12.3253 18.2344 12.6086 17.9317C12.892 17.629 13.284 17.4512 13.6984 17.4376C14.1128 17.4239 14.5156 17.5754 14.8183 17.8588C15.121 18.1421 15.2988 18.5341 15.3125 18.9485L15.9375 37.8704C15.9686 38.6782 16.3115 39.4424 16.8942 40.0027C17.4769 40.563 18.2541 40.8757 19.0625 40.8751H30.9374C31.7469 40.8756 32.5249 40.5621 33.1078 40.0005C33.6907 39.4389 34.0329 38.673 34.0624 37.8641L34.6875 18.9485C34.7011 18.5341 34.8789 18.1421 35.1816 17.8588C35.4842 17.5754 35.8871 17.4239 36.3015 17.4376C36.7159 17.4512 37.1079 17.629 37.3913 17.9317C37.6746 18.2344 37.8261 18.6372 37.8124 19.0516ZM39.8796 12.7563C39.8796 13.1707 39.715 13.5681 39.422 13.8612C39.129 14.1542 38.7315 14.3188 38.3171 14.3188H11.6843C11.2699 14.3188 10.8725 14.1542 10.5795 13.8612C10.2864 13.5681 10.1218 13.1707 10.1218 12.7563C10.1218 12.3419 10.2864 11.9445 10.5795 11.6515C10.8725 11.3584 11.2699 11.1938 11.6843 11.1938H16.5281C17.0231 11.1951 17.501 11.0122 17.8687 10.6807C18.2363 10.3491 18.4675 9.89264 18.5171 9.40006C18.6324 8.24457 19.1738 7.17339 20.0357 6.39523C20.8977 5.61707 22.0184 5.18767 23.1796 5.19069H26.8203C27.9815 5.18767 29.1022 5.61707 29.9642 6.39523C30.8261 7.17339 31.3675 8.24457 31.4828 9.40006C31.5324 9.89264 31.7636 10.3491 32.1312 10.6807C32.4989 11.0122 32.9767 11.1951 33.4718 11.1938H38.3156C38.73 11.1938 39.1274 11.3584 39.4204 11.6515C39.7135 11.9445 39.8781 12.3419 39.8781 12.7563H39.8796ZM21.2296 11.1938H28.7734C28.5681 10.7247 28.4338 10.2275 28.3749 9.71881C28.3362 9.33367 28.156 8.97661 27.869 8.7168C27.5821 8.457 27.2089 8.31295 26.8218 8.31257H23.1812C22.7941 8.31295 22.421 8.457 22.134 8.7168C21.8471 8.97661 21.6668 9.33367 21.6281 9.71881C21.5687 10.2276 21.4355 10.7247 21.2296 11.1938ZM22.8031 34.8673V21.5626C22.8031 21.1482 22.6385 20.7507 22.3454 20.4577C22.0524 20.1647 21.655 20.0001 21.2406 20.0001C20.8262 20.0001 20.4287 20.1647 20.1357 20.4577C19.8427 20.7507 19.6781 21.1482 19.6781 21.5626V34.8735C19.6781 35.2879 19.8427 35.6853 20.1357 35.9784C20.4287 36.2714 20.8262 36.436 21.2406 36.436C21.655 36.436 22.0524 36.2714 22.3454 35.9784C22.6385 35.6853 22.8031 35.2879 22.8031 34.8735V34.8673ZM30.3249 34.8673V21.5626C30.3249 21.1482 30.1603 20.7507 29.8673 20.4577C29.5743 20.1647 29.1769 20.0001 28.7625 20.0001C28.348 20.0001 27.9506 20.1647 27.6576 20.4577C27.3646 20.7507 27.2 21.1482 27.2 21.5626V34.8735C27.2 35.2879 27.3646 35.6853 27.6576 35.9784C27.9506 36.2714 28.348 36.436 28.7625 36.436C29.1769 36.436 29.5743 36.2714 29.8673 35.9784C30.1603 35.6853 30.3249 35.2879 30.3249 34.8735V34.8673Z" fill="#008744"/>
</svg>
