<svg width="19" height="19" viewBox="0 0 19 19" fill="none" xmlns="http://www.w3.org/2000/svg">
<path d="M14.1127 7.3586L13.8877 14.1688C13.8685 14.752 13.6228 15.3049 13.2027 15.7099C12.7826 16.115 12.2212 16.3404 11.6377 16.3383H7.36267C6.77948 16.3404 6.2184 16.1153 5.79838 15.7107C5.37836 15.3061 5.13241 14.7539 5.11267 14.171L4.88767 7.3586C4.88274 7.20941 4.93729 7.06438 5.03929 6.95541C5.1413 6.84644 5.28242 6.78246 5.43161 6.77753C5.58079 6.77261 5.72582 6.82715 5.83479 6.92916C5.94376 7.03117 6.00774 7.17229 6.01267 7.32147L6.23767 14.1333C6.24887 14.4241 6.37233 14.6993 6.5821 14.901C6.79188 15.1027 7.07165 15.2152 7.36267 15.215H11.6377C11.9291 15.2152 12.2092 15.1024 12.419 14.9002C12.6288 14.698 12.752 14.4223 12.7627 14.1311L12.9877 7.32147C12.9926 7.17229 13.0566 7.03117 13.1655 6.92916C13.2745 6.82715 13.4195 6.77261 13.5687 6.77753C13.7179 6.78246 13.859 6.84644 13.961 6.95541C14.063 7.06438 14.1176 7.20941 14.1127 7.3586ZM14.8569 5.09228C14.8569 5.24147 14.7976 5.38454 14.6921 5.49003C14.5866 5.59552 14.4435 5.65478 14.2944 5.65478H4.70654C4.55736 5.65478 4.41428 5.59552 4.3088 5.49003C4.20331 5.38454 4.14404 5.24147 4.14404 5.09228C4.14404 4.9431 4.20331 4.80002 4.3088 4.69454C4.41428 4.58905 4.55736 4.52978 4.70654 4.52978H6.45029C6.62852 4.53026 6.80055 4.46442 6.93291 4.34506C7.06526 4.2257 7.14848 4.06136 7.16636 3.88403C7.20786 3.46806 7.40275 3.08243 7.71305 2.80229C8.02334 2.52216 8.42681 2.36757 8.84486 2.36866H10.1555C10.5735 2.36757 10.977 2.52216 11.2873 2.80229C11.5976 3.08243 11.7925 3.46806 11.834 3.88403C11.8519 4.06136 11.9351 4.2257 12.0674 4.34506C12.1998 4.46442 12.3718 4.53026 12.55 4.52978H14.2938C14.443 4.52978 14.5861 4.58905 14.6915 4.69454C14.797 4.80002 14.8563 4.9431 14.8563 5.09228H14.8569ZM8.14286 4.52978H10.8586C10.7847 4.36089 10.7363 4.18192 10.7152 3.99878C10.7012 3.86013 10.6363 3.73159 10.533 3.63806C10.4297 3.54453 10.2954 3.49267 10.156 3.49253H8.84542C8.70607 3.49267 8.57173 3.54453 8.46843 3.63806C8.36513 3.73159 8.30023 3.86013 8.28629 3.99878C8.26494 4.18195 8.21697 4.36092 8.14286 4.52978ZM8.70929 13.0522V8.26253C8.70929 8.11335 8.65003 7.97027 8.54454 7.86479C8.43905 7.7593 8.29598 7.70003 8.14679 7.70003C7.99761 7.70003 7.85453 7.7593 7.74905 7.86479C7.64356 7.97027 7.58429 8.11335 7.58429 8.26253V13.0545C7.58429 13.2037 7.64356 13.3467 7.74905 13.4522C7.85453 13.5577 7.99761 13.617 8.14679 13.617C8.29598 13.617 8.43905 13.5577 8.54454 13.4522C8.65003 13.3467 8.70929 13.2037 8.70929 13.0545V13.0522ZM11.4172 13.0522V8.26253C11.4172 8.11335 11.3579 7.97027 11.2524 7.86479C11.1469 7.7593 11.0039 7.70003 10.8547 7.70003C10.7055 7.70003 10.5624 7.7593 10.4569 7.86479C10.3514 7.97027 10.2922 8.11335 10.2922 8.26253V13.0545C10.2922 13.2037 10.3514 13.3467 10.4569 13.4522C10.5624 13.5577 10.7055 13.617 10.8547 13.617C11.0039 13.617 11.1469 13.5577 11.2524 13.4522C11.3579 13.3467 11.4172 13.2037 11.4172 13.0545V13.0522Z" fill="#EF2B2D"/>
</svg>
