<svg width="18" height="18" viewBox="0 0 18 18" fill="none" xmlns="http://www.w3.org/2000/svg">
<path d="M6.52667 9.86004C6.46418 9.92202 6.41459 9.99575 6.38074 10.077C6.34689 10.1582 6.32947 10.2454 6.32947 10.3334C6.32947 10.4214 6.34689 10.5085 6.38074 10.5898C6.41459 10.671 6.46418 10.7447 6.52667 10.8067L8.52667 12.8067C8.58864 12.8692 8.66238 12.9188 8.74362 12.9526C8.82486 12.9865 8.91199 13.0039 9 13.0039C9.08801 13.0039 9.17515 12.9865 9.25638 12.9526C9.33762 12.9188 9.41136 12.8692 9.47333 12.8067L11.4733 10.8067C11.5989 10.6812 11.6694 10.5109 11.6694 10.3334C11.6694 10.1558 11.5989 9.98558 11.4733 9.86004C11.3478 9.7345 11.1775 9.66398 11 9.66398C10.8225 9.66398 10.6522 9.7345 10.5267 9.86004L9.66667 10.7267V3.00004C9.66667 2.82323 9.59643 2.65366 9.4714 2.52864C9.34638 2.40361 9.17681 2.33337 9 2.33337C8.82319 2.33337 8.65362 2.40361 8.5286 2.52864C8.40357 2.65366 8.33333 2.82323 8.33333 3.00004V10.7267L7.47333 9.86004C7.41136 9.79755 7.33762 9.74796 7.25638 9.71411C7.17515 9.68027 7.08801 9.66284 7 9.66284C6.91199 9.66284 6.82486 9.68027 6.74362 9.71411C6.66238 9.74796 6.58864 9.79755 6.52667 9.86004ZM13 7.00004H11.6667C11.4899 7.00004 11.3203 7.07028 11.1953 7.1953C11.0702 7.32033 11 7.4899 11 7.66671C11 7.84352 11.0702 8.01309 11.1953 8.13811C11.3203 8.26314 11.4899 8.33337 11.6667 8.33337H13C13.1768 8.33337 13.3464 8.40361 13.4714 8.52864C13.5964 8.65366 13.6667 8.82323 13.6667 9.00004V13.6667C13.6667 13.8435 13.5964 14.0131 13.4714 14.1381C13.3464 14.2631 13.1768 14.3334 13 14.3334H5C4.82319 14.3334 4.65362 14.2631 4.5286 14.1381C4.40357 14.0131 4.33333 13.8435 4.33333 13.6667V9.00004C4.33333 8.82323 4.40357 8.65366 4.5286 8.52864C4.65362 8.40361 4.82319 8.33337 5 8.33337H6.33333C6.51014 8.33337 6.67971 8.26314 6.80474 8.13811C6.92976 8.01309 7 7.84352 7 7.66671C7 7.4899 6.92976 7.32033 6.80474 7.1953C6.67971 7.07028 6.51014 7.00004 6.33333 7.00004H5C4.46957 7.00004 3.96086 7.21075 3.58579 7.58583C3.21071 7.9609 3 8.46961 3 9.00004V13.6667C3 14.1971 3.21071 14.7058 3.58579 15.0809C3.96086 15.456 4.46957 15.6667 5 15.6667H13C13.5304 15.6667 14.0391 15.456 14.4142 15.0809C14.7893 14.7058 15 14.1971 15 13.6667V9.00004C15 8.46961 14.7893 7.9609 14.4142 7.58583C14.0391 7.21075 13.5304 7.00004 13 7.00004Z" fill="#008744"/>
</svg>
