<svg width="10" height="10" viewBox="0 0 10 10" fill="none" xmlns="http://www.w3.org/2000/svg">
<g clip-path="url(#clip0_216_167)">
<path d="M4.00735 4.04968L3.42522 5.9909C3.37579 6.156 3.42095 6.33514 3.54287 6.45691C3.63198 6.54602 3.75176 6.59424 3.87429 6.59424C3.9193 6.59424 3.96462 6.58783 4.00887 6.5744L5.95025 5.99243C6.02456 5.97015 6.09231 5.92987 6.14708 5.87494L9.70635 2.31568C9.79424 2.22779 9.84368 2.10846 9.84368 1.98425C9.84368 1.86005 9.79424 1.74072 9.70635 1.65283L8.34695 0.29358C8.16384 0.110473 7.86721 0.110473 7.68411 0.29358L4.12499 3.85284C4.07006 3.90778 4.02978 3.97522 4.00735 4.04968ZM4.87145 4.43207L8.01552 1.28784L8.71194 1.98425L5.56786 5.12848L4.57329 5.42664L4.87145 4.43207Z" fill="#008744"/>
<path d="M9.375 4.53125C9.11606 4.53125 8.90625 4.74121 8.90625 5V8.125C8.90625 8.55591 8.55576 8.90625 8.125 8.90625H1.875C1.44424 8.90625 1.09375 8.55591 1.09375 8.125V1.875C1.09375 1.44409 1.44424 1.09375 1.875 1.09375H5C5.25894 1.09375 5.46875 0.883788 5.46875 0.625C5.46875 0.366213 5.25894 0.15625 5 0.15625H1.875C0.927278 0.15625 0.15625 0.927428 0.15625 1.875V8.125C0.15625 9.07257 0.927278 9.84375 1.875 9.84375H8.125C9.07272 9.84375 9.84375 9.07257 9.84375 8.125V5C9.84375 4.74121 9.63394 4.53125 9.375 4.53125Z" fill="#008744"/>
</g>
<defs>
<clipPath id="clip0_216_167">
<rect width="10" height="10" fill="white"/>
</clipPath>
</defs>
</svg>
