<svg width="38" height="36" viewBox="0 0 38 36" fill="none" xmlns="http://www.w3.org/2000/svg">
<path d="M12.3948 11.0554L12.6541 11.018L12.7709 10.7835L17.4089 1.47548C17.409 1.47542 17.409 1.47535 17.409 1.47529C18.0605 0.169656 19.9416 0.180114 20.5911 1.47547C20.5912 1.47572 20.5913 1.47597 20.5914 1.47622L25.2291 10.7835L25.3459 11.018L25.6052 11.0554L35.9824 12.5529L35.9827 12.5529C37.4387 12.7619 38.0089 14.5296 36.964 15.5366L36.9639 15.5367L29.4562 22.778L29.2654 22.9621L29.3107 23.2234L31.0864 33.4522C31.3324 34.8753 29.8115 35.968 28.5142 35.2928L28.5141 35.2928L19.2308 30.4629L19 30.3428L18.7692 30.4629L9.48588 35.2928L9.48432 35.2936C8.19059 35.9725 6.66738 34.8785 6.91359 33.4526C6.9136 33.4526 6.9136 33.4525 6.91361 33.4525C6.91362 33.4524 6.91364 33.4523 6.91365 33.4522L8.68929 23.2234L8.73464 22.9621L8.54377 22.778L1.03612 15.5367L1.03597 15.5366C-0.00887685 14.5296 0.561257 12.7619 2.01725 12.5529L2.01761 12.5529L12.3948 11.0554Z" fill="white" stroke="#008744"/>
</svg>
