<svg width="68" height="68" viewBox="0 0 68 68" fill="none" xmlns="http://www.w3.org/2000/svg">
<path fill-rule="evenodd" clip-rule="evenodd" d="M43.5328 6.38775C38.7374 6.5306 34.1394 8.32968 30.5203 11.4792C26.9013 14.6287 24.4846 18.9342 23.681 23.664C23.3325 23.6024 22.984 23.5365 22.6313 23.494C18.4706 23.002 14.2706 24.006 10.7823 26.3266C7.3485 28.6105 4.82074 32.0224 3.6361 35.9725C2.45145 39.9227 2.6844 44.1626 4.29466 47.9591L2.14629 58.2229C2.10851 58.4025 2.1179 58.5888 2.17354 58.7637C2.22918 58.9386 2.32917 59.0961 2.46377 59.2208C2.59837 59.3456 2.76299 59.4333 2.9416 59.4756C3.1202 59.5178 3.30669 59.513 3.48291 59.4617L12.5992 56.831C16.2712 58.6851 20.4744 59.202 24.4863 58.293C28.4982 57.384 32.0681 55.1058 34.5823 51.85C35.7592 50.3161 36.6753 48.5988 37.2938 46.767C39.9446 47.7017 42.7578 48.088 45.5625 47.9025C48.3672 47.7169 51.1049 46.9633 53.6095 45.6875L64.5193 48.8325C64.6954 48.8841 64.8819 48.8892 65.0606 48.8472C65.2393 48.8053 65.4041 48.7178 65.5389 48.5933C65.6738 48.4687 65.774 48.3114 65.8299 48.1366C65.8859 47.9617 65.8955 47.7754 65.858 47.5957L63.2825 35.3557C65.1968 30.8864 65.4848 25.8877 64.0965 21.2281C62.7083 16.5685 59.7316 12.5424 55.6835 9.84937C52.0925 7.45997 47.8461 6.24924 43.5349 6.38562L43.5328 6.38775ZM43.6008 8.5C47.4716 8.38052 51.2834 9.47015 54.5063 11.6174C58.194 14.0631 60.8927 17.7396 62.1208 21.9908C63.3488 26.242 63.0262 30.7912 61.2107 34.8266C61.1123 35.0438 61.0898 35.2878 61.1469 35.5194C61.1494 35.5357 61.1522 35.552 61.1554 35.5682L63.4079 46.3059L53.9559 43.5752C53.9148 43.5628 53.8729 43.5529 53.8305 43.5455C53.7165 43.5095 53.5973 43.493 53.4778 43.4966V43.5009C53.3106 43.5051 53.1468 43.5488 52.9997 43.6284C50.6955 44.8617 48.1576 45.5964 45.5509 45.7846C42.9442 45.9727 40.3271 45.6102 37.8697 44.7206C38.7947 40.3143 38.0068 35.7211 35.666 31.875H56.2934C56.5752 31.875 56.8455 31.7631 57.0447 31.5638C57.244 31.3645 57.3559 31.0943 57.3559 30.8125C57.3559 30.5307 57.244 30.2605 57.0447 30.0612C56.8455 29.8619 56.5752 29.75 56.2934 29.75H34.1445C33.9363 29.4971 33.7323 29.24 33.507 28.9977C31.3925 26.7314 28.718 25.0624 25.7529 24.1591C26.4463 19.8828 28.6065 15.9811 31.8628 13.1238C35.1191 10.2665 39.2706 8.63169 43.6008 8.5ZM32.8462 17C32.7066 17.007 32.5698 17.0414 32.4436 17.1012C32.3174 17.161 32.2041 17.2452 32.1104 17.3488C31.9211 17.558 31.8227 17.8338 31.8368 18.1156C31.8509 18.3974 31.9763 18.6621 32.1855 18.8514C32.3948 19.0407 32.6706 19.1391 32.9524 19.125H56.287C56.5688 19.125 56.8391 19.0131 57.0383 18.8138C57.2376 18.6145 57.3495 18.3443 57.3495 18.0625C57.3495 17.7807 57.2376 17.5105 57.0383 17.3112C56.8391 17.1119 56.5688 17 56.287 17H32.9545C32.9184 16.9982 32.8823 16.9982 32.8462 17ZM32.8462 23.375C32.5644 23.3891 32.2997 23.5145 32.1104 23.7238C31.9211 23.933 31.8227 24.2088 31.8368 24.4906C31.8509 24.7724 31.9763 25.0371 32.1855 25.2264C32.3948 25.4157 32.6706 25.5141 32.9524 25.5H56.287C56.5688 25.5 56.8391 25.3881 57.0383 25.1888C57.2376 24.9895 57.3495 24.7193 57.3495 24.4375C57.3495 24.1557 57.2376 23.8855 57.0383 23.6862C56.8391 23.4869 56.5688 23.375 56.287 23.375H32.9545C32.9184 23.3732 32.8823 23.3732 32.8462 23.375ZM21.046 25.5C23.1003 25.5626 25.1217 26.0321 26.9933 26.8813C28.8649 27.7304 30.5494 28.9424 31.9494 30.447C34.4652 33.1418 35.9415 36.643 36.1147 40.3256C36.2879 44.0082 35.1468 47.6325 32.895 50.5516C30.6454 53.4725 27.4314 55.4993 23.8262 56.2707C20.221 57.0421 16.4591 56.5079 13.2112 54.7634C13.0832 54.6938 12.9422 54.6513 12.7971 54.6385C12.6519 54.6257 12.5057 54.6429 12.3675 54.689C12.3389 54.6949 12.3106 54.702 12.2825 54.7102L4.59004 56.9309L6.42391 48.161C6.42394 48.1567 6.42394 48.1525 6.42391 48.1483C6.4917 47.9104 6.47441 47.6564 6.37504 47.43C4.86112 44.0683 4.59137 40.278 5.61394 36.7358C6.6365 33.1936 8.88481 30.1301 11.9574 28.0925C14.6439 26.3048 17.8207 25.3986 21.046 25.5ZM11.5962 34C11.3144 34.0141 11.0497 34.1395 10.8604 34.3488C10.6711 34.558 10.5727 34.8338 10.5868 35.1156C10.6009 35.3974 10.7263 35.6621 10.9355 35.8514C11.1448 36.0407 11.4206 36.1391 11.7024 36.125H30.7955C31.0773 36.125 31.3476 36.0131 31.5468 35.8138C31.7461 35.6145 31.858 35.3443 31.858 35.0625C31.858 34.7807 31.7461 34.5105 31.5468 34.3112C31.3476 34.1119 31.0773 34 30.7955 34H11.7045C11.6684 33.9982 11.6323 33.9982 11.5962 34ZM40.885 36.125C40.6032 36.1394 40.3387 36.2651 40.1496 36.4745C39.9605 36.6839 39.8624 36.9599 39.8767 37.2417C39.8911 37.5235 40.0168 37.788 40.2262 37.9771C40.4357 38.1662 40.7116 38.2644 40.9934 38.25H46.1019C46.3837 38.25 46.654 38.1381 46.8532 37.9388C47.0525 37.7395 47.1644 37.4693 47.1644 37.1875C47.1644 36.9057 47.0525 36.6355 46.8532 36.4362C46.654 36.2369 46.3837 36.125 46.1019 36.125H40.9934C40.958 36.1232 40.9204 36.1232 40.885 36.125ZM11.5962 40.375C11.3144 40.3891 11.0497 40.5145 10.8604 40.7238C10.6711 40.933 10.5727 41.2088 10.5868 41.4906C10.6009 41.7724 10.7263 42.0371 10.9355 42.2264C11.1448 42.4157 11.4206 42.5141 11.7024 42.5H30.7955C31.0773 42.5 31.3476 42.3881 31.5468 42.1888C31.7461 41.9895 31.858 41.7193 31.858 41.4375C31.858 41.1557 31.7461 40.8855 31.5468 40.6862C31.3476 40.4869 31.0773 40.375 30.7955 40.375H11.7045C11.6684 40.3731 11.6323 40.3731 11.5962 40.375ZM11.5792 46.75C11.4396 46.7571 11.3029 46.7916 11.1767 46.8516C11.0505 46.9116 10.9374 46.9958 10.8437 47.0995C10.7501 47.2032 10.6778 47.3243 10.631 47.456C10.5842 47.5876 10.5637 47.7272 10.5708 47.8667C10.578 48.0062 10.6125 48.143 10.6725 48.2692C10.7324 48.3953 10.8167 48.5085 10.9204 48.6021C11.0241 48.6957 11.1452 48.768 11.2768 48.8149C11.4084 48.8617 11.548 48.8821 11.6875 48.875H20.1875C20.4693 48.875 20.7396 48.7631 20.9388 48.5638C21.1381 48.3645 21.25 48.0943 21.25 47.8125C21.25 47.5307 21.1381 47.2605 20.9388 47.0612C20.7396 46.8619 20.4693 46.75 20.1875 46.75H11.6875C11.6521 46.7482 11.6146 46.7482 11.5792 46.75Z" fill="url(#paint0_linear_101_1144)"/>
<defs>
<linearGradient id="paint0_linear_101_1144" x1="2.12291" y1="32.9417" x2="61.625" y2="32.9417" gradientUnits="userSpaceOnUse">
<stop stop-color="#008744"/>
<stop offset="1" stop-color="#26F08C"/>
</linearGradient>
</defs>
</svg>
