<svg width="12" height="12" viewBox="0 0 12 12" fill="none" xmlns="http://www.w3.org/2000/svg">
<path d="M6 3.54375C5.90054 3.54375 5.80516 3.50424 5.73484 3.43391C5.66451 3.36359 5.625 3.26821 5.625 3.16875V1.875C5.625 1.77554 5.66451 1.68016 5.73484 1.60984C5.80516 1.53951 5.90054 1.5 6 1.5C6.09946 1.5 6.19484 1.53951 6.26517 1.60984C6.33549 1.68016 6.375 1.77554 6.375 1.875V3.16875C6.375 3.26821 6.33549 3.36359 6.26517 3.43391C6.19484 3.50424 6.09946 3.54375 6 3.54375ZM6 10.5C5.90054 10.5 5.80516 10.4605 5.73484 10.3902C5.66451 10.3198 5.625 10.2245 5.625 10.125V6.14813C5.625 6.04867 5.66451 5.95329 5.73484 5.88296C5.80516 5.81263 5.90054 5.77313 6 5.77313C6.09946 5.77313 6.19484 5.81263 6.26517 5.88296C6.33549 5.95329 6.375 6.04867 6.375 6.14813V10.125C6.375 10.2245 6.33549 10.3198 6.26517 10.3902C6.19484 10.4605 6.09946 10.5 6 10.5Z" fill="#131313"/>
<path d="M6.00004 5.36812C5.74519 5.36812 5.49607 5.29253 5.2842 5.15091C5.07233 5.00928 4.90723 4.80799 4.80979 4.57251C4.71235 4.33703 4.68695 4.07793 4.7368 3.82801C4.78666 3.57809 4.90953 3.34857 5.08986 3.16849C5.2702 2.98842 5.49989 2.86589 5.74989 2.8164C5.99988 2.76691 6.25894 2.79268 6.49428 2.89047C6.72962 2.98825 6.93067 3.15364 7.07199 3.36572C7.2133 3.5778 7.28853 3.82703 7.28816 4.08188C7.28767 4.42318 7.15173 4.75034 6.91022 4.99151C6.6687 5.23267 6.34135 5.36813 6.00004 5.36812ZM6.00004 3.54375C5.89361 3.54375 5.78957 3.57531 5.70107 3.63444C5.61258 3.69357 5.5436 3.77761 5.50288 3.87594C5.46215 3.97427 5.45149 4.08247 5.47225 4.18686C5.49302 4.29124 5.54427 4.38713 5.61953 4.46239C5.69478 4.53764 5.79067 4.5889 5.89506 4.60966C5.99944 4.63042 6.10764 4.61977 6.20597 4.57904C6.3043 4.53831 6.38834 4.46934 6.44747 4.38084C6.5066 4.29235 6.53816 4.18831 6.53816 4.08188C6.53767 3.93931 6.48082 3.80272 6.38 3.70191C6.27919 3.6011 6.14261 3.54424 6.00004 3.54375ZM9.56254 6.375C9.46308 6.375 9.3677 6.33549 9.29737 6.26517C9.22705 6.19484 9.18754 6.09946 9.18754 6V1.875C9.18754 1.77554 9.22705 1.68016 9.29737 1.60984C9.3677 1.53951 9.46308 1.5 9.56254 1.5C9.66199 1.5 9.75738 1.53951 9.8277 1.60984C9.89803 1.68016 9.93754 1.77554 9.93754 1.875V6C9.93754 6.09946 9.89803 6.19484 9.8277 6.26517C9.75738 6.33549 9.66199 6.375 9.56254 6.375ZM9.56254 10.5C9.46308 10.5 9.3677 10.4605 9.29737 10.3902C9.22705 10.3198 9.18754 10.2245 9.18754 10.125V8.93062C9.18754 8.83117 9.22705 8.73579 9.29737 8.66546C9.3677 8.59513 9.46308 8.55562 9.56254 8.55562C9.66199 8.55562 9.75738 8.59513 9.8277 8.66546C9.89803 8.73579 9.93754 8.83117 9.93754 8.93062V10.125C9.93754 10.2245 9.89803 10.3198 9.8277 10.3902C9.75738 10.4605 9.66199 10.5 9.56254 10.5Z" fill="#131313"/>
<path d="M9.5625 9.30562C9.30765 9.30562 9.05853 9.23003 8.84666 9.08841C8.63479 8.94678 8.46969 8.74549 8.37225 8.51001C8.27481 8.27453 8.24941 8.01543 8.29926 7.76551C8.34912 7.51559 8.47199 7.28607 8.65232 7.106C8.83266 6.92592 9.06236 6.80339 9.31235 6.7539C9.56235 6.70441 9.8214 6.73018 10.0567 6.82797C10.2921 6.92575 10.4931 7.09114 10.6344 7.30322C10.7758 7.5153 10.851 7.76453 10.8506 8.01937C10.8501 8.36068 10.7142 8.68784 10.4727 8.92901C10.2312 9.17017 9.90381 9.30563 9.5625 9.30562ZM9.5625 7.48125C9.45607 7.48125 9.35203 7.51281 9.26353 7.57194C9.17504 7.63107 9.10607 7.71511 9.06534 7.81344C9.02461 7.91177 9.01395 8.01997 9.03471 8.12436C9.05548 8.22874 9.10673 8.32463 9.18199 8.39989C9.25725 8.47514 9.35313 8.5264 9.45752 8.54716C9.5619 8.56792 9.6701 8.55727 9.76843 8.51654C9.86676 8.47581 9.9508 8.40684 10.0099 8.31834C10.0691 8.22985 10.1006 8.12581 10.1006 8.01937C10.1001 7.87681 10.0433 7.74022 9.94247 7.63941C9.84165 7.5386 9.70507 7.48174 9.5625 7.48125ZM2.4375 4.3125C2.33804 4.3125 2.24266 4.27299 2.17234 4.20266C2.10201 4.13234 2.0625 4.03696 2.0625 3.9375V1.875C2.0625 1.77554 2.10201 1.68016 2.17234 1.60984C2.24266 1.53951 2.33804 1.5 2.4375 1.5C2.53696 1.5 2.63234 1.53951 2.70266 1.60984C2.77299 1.68016 2.8125 1.77554 2.8125 1.875V3.9375C2.8125 4.03696 2.77299 4.13234 2.70266 4.20266C2.63234 4.27299 2.53696 4.3125 2.4375 4.3125ZM2.4375 10.5C2.33804 10.5 2.24266 10.4605 2.17234 10.3902C2.10201 10.3198 2.0625 10.2245 2.0625 10.125V6.86812C2.0625 6.76867 2.10201 6.67329 2.17234 6.60296C2.24266 6.53263 2.33804 6.49312 2.4375 6.49312C2.53696 6.49312 2.63234 6.53263 2.70266 6.60296C2.77299 6.67329 2.8125 6.76867 2.8125 6.86812V10.125C2.8125 10.2245 2.77299 10.3198 2.70266 10.3902C2.63234 10.4605 2.53696 10.5 2.4375 10.5Z" fill="#131313"/>
<path d="M2.43754 7.24312C2.18269 7.24312 1.93357 7.16753 1.7217 7.0259C1.50983 6.88428 1.34473 6.68299 1.24729 6.44751C1.14985 6.21202 1.12445 5.95293 1.1743 5.703C1.22416 5.45308 1.34703 5.22356 1.52736 5.04349C1.7077 4.86342 1.93739 4.74088 2.18739 4.69139C2.43738 4.6419 2.69644 4.66768 2.93178 4.76546C3.16712 4.86325 3.36817 5.02864 3.50949 5.24072C3.6508 5.45279 3.72603 5.70202 3.72566 5.95687C3.72517 6.29818 3.58923 6.62534 3.34772 6.8665C3.1062 7.10767 2.77885 7.24312 2.43754 7.24312ZM2.43754 5.41875C2.33111 5.41875 2.22707 5.45031 2.13857 5.50944C2.05008 5.56857 1.98111 5.65261 1.94038 5.75094C1.89965 5.84927 1.88899 5.95747 1.90975 6.06185C1.93052 6.16624 1.98177 6.26212 2.05703 6.33738C2.13228 6.41264 2.22817 6.46389 2.33256 6.48466C2.43694 6.50542 2.54514 6.49476 2.64347 6.45403C2.7418 6.4133 2.82584 6.34433 2.88497 6.25584C2.9441 6.16734 2.97566 6.0633 2.97566 5.95687C2.97517 5.8143 2.91832 5.67772 2.8175 5.5769C2.71669 5.47609 2.58011 5.41924 2.43754 5.41875Z" fill="#131313"/>
</svg>
