<svg width="21" height="22" viewBox="0 0 21 22" fill="none" xmlns="http://www.w3.org/2000/svg">
<path fill-rule="evenodd" clip-rule="evenodd" d="M7.22841 4.99605C8.01727 4.24586 9.06426 3.82751 10.1529 3.82751H10.8559C11.9445 3.82751 12.9915 4.24586 13.7803 4.99605L16.9288 7.99022C17.7712 8.79133 18.2481 9.90293 18.2481 11.0654V15.0713C18.2481 17.415 16.3481 19.315 14.0044 19.315H7.00437C4.66061 19.315 2.76062 17.415 2.76062 15.0713V11.0654C2.76062 9.90293 3.23751 8.79133 4.0799 7.99022L7.22841 4.99605ZM10.1529 5.31501C9.44583 5.31501 8.76583 5.58672 8.25348 6.07396L5.10497 9.06813C4.55785 9.58843 4.24812 10.3104 4.24812 11.0654V15.0713C4.24812 16.5935 5.48213 17.8275 7.00437 17.8275H14.0044C15.5266 17.8275 16.7606 16.5935 16.7606 15.0713V11.0654C16.7606 10.3104 16.4509 9.58843 15.9038 9.06813L12.7552 6.07396C12.2429 5.58672 11.5629 5.31501 10.8559 5.31501H10.1529Z" fill="#008744" stroke="white" stroke-width="0.3"/>
<path fill-rule="evenodd" clip-rule="evenodd" d="M8.0105 15.0713C8.0105 14.6605 8.34349 14.3275 8.75425 14.3275H12.2543C12.665 14.3275 12.998 14.6605 12.998 15.0713C12.998 15.482 12.665 15.815 12.2543 15.815H8.75425C8.34349 15.815 8.0105 15.482 8.0105 15.0713Z" fill="#008744" stroke="white" stroke-width="0.3" stroke-linecap="round"/>
</svg>
