<svg width="57" height="29" viewBox="0 0 57 29" fill="none" xmlns="http://www.w3.org/2000/svg">
<g clip-path="url(#clip0_52_188)">
<g clip-path="url(#clip1_52_188)">
<path d="M19.1667 9.33333C19.811 9.33333 20.3333 8.811 20.3333 8.16667C20.3333 7.52233 19.811 7 19.1667 7C18.5223 7 18 7.52233 18 8.16667C18 8.811 18.5223 9.33333 19.1667 9.33333Z" fill="#49454F" stroke="white" stroke-width="0.2"/>
<path d="M19.1667 15.1667C19.811 15.1667 20.3333 14.6444 20.3333 14C20.3333 13.3557 19.811 12.8334 19.1667 12.8334C18.5223 12.8334 18 13.3557 18 14C18 14.6444 18.5223 15.1667 19.1667 15.1667Z" fill="#49454F" stroke="white" stroke-width="0.2"/>
<path d="M19.1667 21C19.811 21 20.3333 20.4776 20.3333 19.8333C20.3333 19.189 19.811 18.6666 19.1667 18.6666C18.5223 18.6666 18 19.189 18 19.8333C18 20.4776 18.5223 21 19.1667 21Z" fill="#49454F" stroke="white" stroke-width="0.2"/>
<path d="M37.9033 12.8334H23.7633C23.1576 12.8334 22.6666 13.3244 22.6666 13.93V14.07C22.6666 14.6757 23.1576 15.1667 23.7633 15.1667H37.9033C38.509 15.1667 39 14.6757 39 14.07V13.93C39 13.3244 38.509 12.8334 37.9033 12.8334Z" fill="#49454F" stroke="white"/>
<path d="M37.9033 18.6666H23.7633C23.1576 18.6666 22.6666 19.1576 22.6666 19.7633V19.9033C22.6666 20.509 23.1576 21 23.7633 21H37.9033C38.509 21 39 20.509 39 19.9033V19.7633C39 19.1576 38.509 18.6666 37.9033 18.6666Z" fill="#49454F" stroke="white"/>
<path d="M37.9033 7H23.7633C23.1576 7 22.6666 7.49099 22.6666 8.09667V8.23667C22.6666 8.84234 23.1576 9.33333 23.7633 9.33333H37.9033C38.509 9.33333 39 8.84234 39 8.23667V8.09667C39 7.49099 38.509 7 37.9033 7Z" fill="#49454F" stroke="white"/>
</g>
</g>
<defs>
<clipPath id="clip0_52_188">
<rect x="0.538818" y="0.271851" width="55.9223" height="27.9612" rx="13.9806" fill="white"/>
</clipPath>
<clipPath id="clip1_52_188">
<rect width="21" height="22" fill="white" transform="translate(18 3.25244)"/>
</clipPath>
</defs>
</svg>
