<svg width="24" height="24" viewBox="0 0 24 24" fill="none" xmlns="http://www.w3.org/2000/svg">
<path d="M11.9977 13.2L11.9977 13.2L12.0023 13.2C12.2659 13.1969 12.5241 13.2746 12.7422 13.4228C12.9603 13.5709 13.1277 13.7822 13.222 14.0284C13.3163 14.2745 13.333 14.5437 13.2697 14.7996C13.2064 15.0554 13.0663 15.2858 12.8681 15.4597L12.8 15.5194V15.61V17C12.8 17.2122 12.7157 17.4157 12.5657 17.5657C12.4157 17.7157 12.2122 17.8 12 17.8C11.7878 17.8 11.5843 17.7157 11.4343 17.5657C11.2843 17.4157 11.2 17.2122 11.2 17V15.61V15.5194L11.1319 15.4597C10.9337 15.2858 10.7936 15.0554 10.7303 14.7996C10.667 14.5437 10.6837 14.2745 10.778 14.0284C10.8723 13.7822 11.0397 13.5709 11.2578 13.4228C11.4759 13.2746 11.7341 13.1969 11.9977 13.2ZM16.8 9V9.2H17C17.7426 9.2 18.4548 9.495 18.9799 10.0201C19.505 10.5452 19.8 11.2574 19.8 12V19C19.8 19.7426 19.505 20.4548 18.9799 20.9799C18.4548 21.505 17.7426 21.8 17 21.8H7C6.25739 21.8 5.5452 21.505 5.0201 20.9799C4.495 20.4548 4.2 19.7426 4.2 19V12C4.2 11.2574 4.495 10.5452 5.0201 10.0201C5.5452 9.495 6.25739 9.2 7 9.2H7.2V9V7C7.2 5.72696 7.70571 4.50606 8.60589 3.60589C9.50606 2.70571 10.727 2.2 12 2.2C13.273 2.2 14.4939 2.70571 15.3941 3.60589C16.2943 4.50606 16.8 5.72696 16.8 7V9ZM15 9.2H15.2V9V7C15.2 6.15131 14.8629 5.33737 14.2627 4.73726C13.6626 4.13714 12.8487 3.8 12 3.8C11.1513 3.8 10.3374 4.13714 9.73726 4.73726C9.13714 5.33737 8.8 6.15131 8.8 7V9V9.2H9H15ZM17.8485 19.8485C18.0736 19.6235 18.2 19.3183 18.2 19V12C18.2 11.6817 18.0736 11.3765 17.8485 11.1515C17.6235 10.9264 17.3183 10.8 17 10.8H7C6.68174 10.8 6.37652 10.9264 6.15147 11.1515C5.92643 11.3765 5.8 11.6817 5.8 12V19C5.8 19.3183 5.92643 19.6235 6.15147 19.8485C6.37652 20.0736 6.68174 20.2 7 20.2H17C17.3183 20.2 17.6235 20.0736 17.8485 19.8485Z" fill="#008744" stroke="white" stroke-width="0.4"/>
</svg>
