<svg width="42" height="44" viewBox="0 0 42 44" fill="none" xmlns="http://www.w3.org/2000/svg">
<path d="M20.9824 44C16.214 44.0098 11.596 42.3314 7.94678 39.2622C4.29751 36.1929 1.85252 31.9309 1.04502 27.2314C0.237525 22.5319 1.11965 17.6983 3.5351 13.5869C5.95055 9.47557 9.74338 6.35198 14.2416 4.7696L14.84 6.424C10.7446 7.87658 7.2944 10.7297 5.09861 14.4793C2.90282 18.229 2.10275 22.634 2.83972 26.9164C3.57669 31.1987 5.80327 35.0829 9.12622 37.8828C12.4492 40.6827 16.6547 42.2183 21 42.2183C25.3453 42.2183 29.5508 40.6827 32.8737 37.8828C36.1966 35.0829 38.4232 31.1987 39.1602 26.9164C39.8972 22.634 39.0971 18.229 36.9013 14.4793C34.7055 10.7297 31.2553 7.87658 27.16 6.424L27.7408 4.7696C32.2404 6.35246 36.0342 9.47751 38.4495 13.5907C40.8649 17.7039 41.7457 22.5395 40.9359 27.2401C40.1261 31.9408 37.678 36.2029 34.0255 39.2708C30.3731 42.3386 25.7523 44.014 20.9824 44ZM21.88 15.84H20.12V0H21.88V15.84Z" fill="#008744"/>
</svg>
