<svg width="21" height="21" viewBox="0 0 21 21" fill="none" xmlns="http://www.w3.org/2000/svg">
<rect width="21" height="21" rx="6.59227" fill="#D1FFE8"/>
<path d="M16.0625 10.25C16 10.1875 16 10.125 15.9375 10.0625L14.0625 8.1875C13.8125 7.9375 13.4375 7.9375 13.1875 8.1875C12.9375 8.4375 12.9375 8.8125 13.1875 9.0625L14 9.875H11.125C10.75 9.875 10.5 10.125 10.5 10.5C10.5 10.875 10.75 11.125 11.125 11.125H14L13.1875 11.9375C12.9375 12.1875 12.9375 12.5625 13.1875 12.8125C13.3125 12.9375 13.5 13 13.625 13C13.75 13 13.9375 12.9375 14.0625 12.8125L15.9375 10.9375C16 10.875 16.0625 10.8125 16.0625 10.75C16.125 10.5625 16.125 10.4375 16.0625 10.25Z" fill="#008744" stroke="#D1FFE8" stroke-width="0.3"/>
<path d="M12.6875 14.3125C12 14.6875 11.25 14.875 10.5 14.875C8.0625 14.875 6.125 12.9375 6.125 10.5C6.125 8.0625 8.0625 6.125 10.5 6.125C11.25 6.125 12 6.3125 12.6875 6.6875C13 6.875 13.375 6.75 13.5625 6.4375C13.75 6.125 13.625 5.75 13.3125 5.5625C12.4375 5.125 11.5 4.875 10.5 4.875C7.375 4.875 4.875 7.375 4.875 10.5C4.875 13.625 7.375 16.125 10.5 16.125C11.5 16.125 12.4375 15.875 13.3125 15.375C13.625 15.1875 13.6875 14.8125 13.5625 14.5C13.375 14.25 13 14.125 12.6875 14.3125Z" fill="#008744" stroke="#D1FFE8" stroke-width="0.3"/>
</svg>
