<svg width="72" height="76" viewBox="0 0 72 76" fill="none" xmlns="http://www.w3.org/2000/svg">
<path d="M34.7393 75.7649C52.7153 75.7649 67.2876 61.1925 67.2876 43.2166C67.2876 25.2407 52.7153 10.6683 34.7393 10.6683C16.7634 10.6683 2.19104 25.2407 2.19104 43.2166C2.19104 61.1925 16.7634 75.7649 34.7393 75.7649Z" fill="#D9DCE0"/>
<path d="M66.0906 43.5503C66.0906 43.5503 61.6893 55.1293 50.1611 56.5295C47.0801 56.9043 44.6908 56.7617 42.8577 56.3723C38.408 55.4388 37.1868 53.064 37.1868 53.064L43.7332 46.8586C43.7332 46.8586 43.8686 46.8925 44.1129 46.9457C45.2858 47.2068 49.0245 47.9033 53.1429 47.3761C56.0667 47.0013 59.1887 46.0122 61.7159 43.8018C62.3253 43.2746 62.9009 42.6725 63.4281 41.9929L66.0906 43.5503Z" fill="#008744"/>
<path d="M66.0905 43.5503C66.0905 43.5503 61.6891 55.1293 50.1609 56.5295C47.08 56.9043 44.6907 56.7616 42.8576 56.3723C42.4707 55.7749 42.1248 55.1921 41.8806 54.6649C40.6811 52.0725 42.7439 47.9976 42.7439 47.9976L44.1127 46.948C45.2856 47.2092 49.0243 47.9057 53.1427 47.3785C53.462 50.1862 55.9746 52.8778 59.1475 50.1064C62.18 47.4511 61.9455 44.7982 61.7133 43.8042C62.3227 43.277 62.8983 42.6749 63.4255 41.9953L66.0905 43.5503Z" fill="#00743A"/>
<path d="M25.9124 55.8838C25.9124 56.0023 25.7335 56.4763 25.5062 57.0035C25.2014 57.6999 24.8048 58.498 24.6138 58.689C24.2704 59.0324 19.4047 61.5644 19.4047 61.5644C19.4047 61.5644 20.2197 62.672 19.944 62.8752C19.6683 63.0807 18.9888 64.0529 18.9888 64.0529C18.9888 64.0529 15.9683 64.1085 13.3275 62.6188C11.7507 61.7289 10.307 60.2924 9.7314 57.9563C9.02524 55.0978 10.0796 51.1704 12.5512 48.1669C14.1328 46.2371 16.3044 44.6893 18.9622 44.0533C19.1629 44.0049 19.3684 43.9614 19.5764 43.9227C26.7709 42.6241 25.9124 55.6081 25.9124 55.8838Z" fill="#008744"/>
<path d="M24.6138 58.689C24.2704 59.0324 19.4047 61.5644 19.4047 61.5644C19.4047 61.5644 20.2197 62.672 19.944 62.8752C19.6683 63.0807 18.9887 64.0529 18.9887 64.0529C18.9887 64.0529 15.9682 64.1085 13.3274 62.6188C12.9429 60.5487 13.828 57.8378 14.7301 55.5766C15.8231 52.8391 13.7458 49.6663 12.5511 48.1669C14.1327 46.2371 16.3044 44.6893 18.9621 44.0533L24.9427 49.2914L25.5037 57.001C25.2038 57.6999 24.8072 58.498 24.6138 58.689Z" fill="#00743A"/>
<path d="M57.4331 38.5589C56.1393 40.3799 53.7427 41.6277 50.0934 40.8829C50.0499 40.8732 50.0112 40.866 49.9677 40.8563L49.8468 40.6556L48.0911 37.7584L49.6727 32.9943C49.6727 32.9943 52.2917 30.7985 54.9422 30.8589C55.7838 30.871 56.6326 31.1201 57.3968 31.7392C58.9663 33.0137 59.0848 36.2518 57.4331 38.5589Z" fill="#008744"/>
<path d="M57.4329 38.5589C56.1391 40.3799 53.7426 41.6278 50.0933 40.8829L49.8442 40.6556L48.0885 37.7584L49.6701 32.9943C49.6701 32.9943 52.2891 30.7985 54.9396 30.8589C54.3375 31.7126 53.1742 33.7489 53.3145 36.5106C53.4378 38.8805 55.7812 38.8491 57.4329 38.5589Z" fill="#00743A"/>
<path d="M55.4015 38.6581C54.2673 39.6835 52.2939 40.2348 49.3121 39.2022L48.9639 35.8988L49.9747 35.4103C49.9747 35.4103 51.7353 34.7211 53.445 34.4768C54.4341 34.3293 55.4063 34.3341 56.0109 34.6993C56.9371 35.2579 56.8525 37.3474 55.4015 38.6581Z" fill="#FEFEFE"/>
<path d="M55.4015 38.6581C54.2673 39.6835 52.2939 40.2349 49.3121 39.2022L48.9639 35.8988L49.9747 35.4103C49.9747 35.4103 51.7353 34.7211 53.445 34.4768C53.3314 35.0959 53.2806 35.7755 53.3144 36.5082C53.3918 37.9786 54.318 38.5227 55.4015 38.6581Z" fill="#D1FFE8"/>
<path d="M10.2198 38.5589C11.5136 40.3799 13.9102 41.6277 17.5595 40.8829C17.603 40.8732 17.6417 40.8659 17.6852 40.8563L17.8061 40.6556L19.5618 37.7584L17.9803 32.9943C17.9803 32.9943 15.3612 30.7984 12.7107 30.8589C11.8691 30.871 11.0203 31.1201 10.2561 31.7392C8.6842 33.0136 8.56812 36.2518 10.2198 38.5589Z" fill="#008744"/>
<path d="M10.22 38.5589C11.5138 40.3799 13.9103 41.6278 17.5596 40.8829L17.8087 40.6556L19.5644 37.7584L17.9828 32.9943C17.9828 32.9943 15.3638 30.7985 12.7133 30.8589C13.3154 31.7126 14.4786 33.7489 14.3384 36.5106C14.2151 38.8805 11.8717 38.8491 10.22 38.5589Z" fill="#00743A"/>
<path d="M12.2512 38.658C13.3854 39.6834 15.3588 40.2348 18.3406 39.2022L18.6888 35.8987L17.6779 35.4102C17.6779 35.4102 15.9174 34.721 14.2076 34.4768C13.2185 34.3292 12.2464 34.3341 11.6418 34.6992C10.7156 35.2579 10.7978 37.3473 12.2512 38.658Z" fill="#FEFEFE"/>
<path d="M12.2513 38.6581C13.3855 39.6834 15.3589 40.2348 18.3407 39.2022L18.6889 35.8988L17.6781 35.4103C17.6781 35.4103 15.9175 34.721 14.2078 34.4768C14.3214 35.0959 14.3722 35.7754 14.3384 36.5082C14.2586 37.9785 13.3348 38.5226 12.2513 38.6581Z" fill="#D1FFE8"/>
<path d="M49.6918 36.3969C49.6918 36.3969 53.5055 42.4113 44.4828 44.9433C43.3631 45.2528 42.0475 45.514 40.5046 45.7026C37.2447 46.1041 35.1407 44.8611 33.8276 42.7208C32.512 44.8611 30.4057 46.1017 27.1458 45.7026C13.1436 43.9953 17.9585 36.3969 17.9585 36.3969C12.926 31.7997 8.9841 22.1723 14.7857 14.1483C17.5281 10.3515 21.956 8.35155 25.8519 7.302C29.7479 6.24761 33.1214 6.14362 33.7671 6.12911C33.7671 6.12911 33.7937 6.12911 33.8276 6.12911C33.8615 6.12911 33.8832 6.12911 33.8832 6.12911C34.6934 6.1412 39.8275 6.30807 44.8866 8.32011C47.8684 9.5051 50.826 11.3309 52.8623 14.1459C58.6663 22.1723 54.7244 31.7997 49.6918 36.3969Z" fill="#008744"/>
<path d="M49.6919 36.397C49.6919 36.397 53.5056 42.4113 44.4828 44.9433C48.5238 38.9507 42.9351 34.9097 42.9351 34.9097C52.0667 26.5326 47.6073 13.9597 44.8867 8.32015C47.8685 9.50513 50.8261 11.331 52.8623 14.1459C58.6663 22.1723 54.7244 31.7997 49.6919 36.397Z" fill="#00743A"/>
<path d="M48.2094 36.4114C48.2094 36.4114 50.1489 41.3932 46.8237 44.0872C46.0401 44.7281 44.9592 45.2335 43.4937 45.5213C37.5978 46.6676 36.2556 46.4354 33.8276 46.4354C31.3996 46.4354 30.0574 46.6676 24.1615 45.5213C16.4833 44.0267 19.4506 36.4114 19.4506 36.4114C19.4506 36.4114 12.6503 27.5144 18.4132 21.2824C24.1736 15.0552 33.8276 18.8326 33.8276 18.8326C33.8276 18.8326 42.536 15.4252 48.3448 20.4142C48.6544 20.6802 48.9518 20.968 49.242 21.2824C55.0049 27.5144 48.2094 36.4114 48.2094 36.4114Z" fill="#FEFEFE"/>
<path d="M48.2094 36.4114C48.2094 36.4114 50.1489 41.3932 46.8237 44.0872C46.1611 44.4064 45.3848 44.6942 44.4828 44.9457C48.5238 38.9531 42.9351 34.9121 42.9351 34.9121C47.5541 30.6727 48.6955 25.3597 48.3424 20.4166C48.652 20.6826 48.9494 20.9704 49.2396 21.2848C55.0049 27.5144 48.2094 36.4114 48.2094 36.4114Z" fill="#D1FFE8"/>
<path d="M26.6814 33.2772C27.9969 33.2772 29.0634 32.2108 29.0634 30.8952C29.0634 29.5796 27.9969 28.5131 26.6814 28.5131C25.3658 28.5131 24.2993 29.5796 24.2993 30.8952C24.2993 32.2108 25.3658 33.2772 26.6814 33.2772Z" fill="#008744"/>
<path opacity="0.3" d="M31.3029 27.4031L23.1918 35.5142C22.0189 34.6339 21.1967 33.3184 20.9548 31.8045L27.5883 25.171C29.1022 25.4129 30.4202 26.2375 31.3029 27.4031Z" fill="white"/>
<path opacity="0.3" d="M32.4756 30.8952C32.4756 30.9701 32.4756 31.0427 32.4708 31.1176L26.9062 36.6798C26.8312 36.6895 26.7587 36.6895 26.6837 36.6895C26.3742 36.6895 26.0743 36.6629 25.7769 36.6193L32.4055 29.9931C32.449 30.2857 32.4756 30.5856 32.4756 30.8952Z" fill="white"/>
<path d="M32.4758 30.8952C32.4758 30.9701 32.4758 31.0427 32.471 31.1177C32.3573 34.143 29.9293 36.571 26.9064 36.6798C26.8314 36.6895 26.7589 36.6895 26.6839 36.6895C26.3744 36.6895 26.0745 36.6629 25.777 36.6193C24.8145 36.467 23.9343 36.0801 23.1919 35.5166C22.019 34.6363 21.1967 33.3207 20.9549 31.8069C20.9114 31.5094 20.8848 31.2047 20.8848 30.8952C20.8848 27.6957 23.4821 25.1033 26.6815 25.1033C26.991 25.1033 27.2909 25.1299 27.5884 25.1734C29.0998 25.4128 30.4178 26.2375 31.3005 27.4055C31.8616 28.1455 32.2509 29.0306 32.4033 29.9931C32.4492 30.2857 32.4758 30.5856 32.4758 30.8952Z" stroke="#008744" stroke-width="0.710167" stroke-miterlimit="10" stroke-linecap="round" stroke-linejoin="round"/>
<path d="M40.9713 33.2774C42.2869 33.2774 43.3533 32.2109 43.3533 30.8953C43.3533 29.5798 42.2869 28.5133 40.9713 28.5133C39.6557 28.5133 38.5892 29.5798 38.5892 30.8953C38.5892 32.2109 39.6557 33.2774 40.9713 33.2774Z" fill="#008744"/>
<path opacity="0.3" d="M45.5929 27.4032L37.4818 35.5143C36.3089 34.634 35.4867 33.3184 35.2449 31.8045L41.8783 25.1711C43.3922 25.4129 44.7078 26.2376 45.5929 27.4032Z" fill="white"/>
<path opacity="0.3" d="M46.7659 30.8953C46.7659 30.9702 46.7659 31.0428 46.7611 31.1178L41.1965 36.6799C41.1215 36.6896 41.049 36.6896 40.974 36.6896C40.6645 36.6896 40.3646 36.663 40.0671 36.6195L46.6958 29.9957C46.7393 30.2859 46.7659 30.5857 46.7659 30.8953Z" fill="white"/>
<path d="M46.7656 30.8952C46.7656 30.9702 46.7656 31.0427 46.7608 31.1177C46.6471 34.143 44.2191 36.571 41.1962 36.6799C41.1212 36.6895 41.0487 36.6895 40.9737 36.6895C40.6642 36.6895 40.3643 36.6629 40.0668 36.6194C39.1043 36.467 38.2241 36.0801 37.4816 35.5166C36.3088 34.6364 35.4865 33.3208 35.2447 31.8069C35.2012 31.5095 35.1746 31.2048 35.1746 30.8952C35.1746 27.6958 37.7718 25.1033 40.9713 25.1033C41.2808 25.1033 41.5807 25.1299 41.8782 25.1734C43.3896 25.4129 44.7076 26.2375 45.5903 27.4056C46.1514 28.1456 46.5407 29.0307 46.6931 29.9932C46.739 30.2858 46.7656 30.5857 46.7656 30.8952Z" stroke="#008744" stroke-width="0.710167" stroke-miterlimit="10" stroke-linecap="round" stroke-linejoin="round"/>
<path d="M32.4902 30.8952H35.1601" stroke="#008744" stroke-width="0.710167" stroke-miterlimit="10" stroke-linecap="round" stroke-linejoin="round"/>
<path d="M27.5182 40.4549C27.5182 42.1961 28.9305 43.6084 30.6717 43.6084C32.4129 43.6084 33.8252 42.1961 33.8252 40.4549C33.8252 42.1961 35.2375 43.6084 36.9787 43.6084C38.7199 43.6084 40.1322 42.1961 40.1322 40.4549" stroke="#008744" stroke-width="0.710167" stroke-miterlimit="10" stroke-linecap="round" stroke-linejoin="round"/>
<path d="M33.8252 37.8069V40.7331" stroke="#008744" stroke-width="0.710167" stroke-miterlimit="10" stroke-linecap="round" stroke-linejoin="round"/>
<path d="M36.911 37.8335C36.911 38.7379 35.5301 39.4683 33.8252 39.4683C32.1202 39.4683 30.7394 38.7355 30.7394 37.8335C30.7394 36.929 32.1202 37.0911 33.8252 37.0911C35.5301 37.0911 36.911 36.9314 36.911 37.8335Z" fill="#008744"/>
<path d="M46.8866 68.4786H20.7638C19.7892 68.4786 18.9984 67.6878 18.9984 66.7132C18.9984 65.7386 19.7892 64.9478 20.7638 64.9478H46.8866C47.8612 64.9478 48.652 65.7386 48.652 66.7132C48.652 67.6878 47.8612 68.4786 46.8866 68.4786Z" fill="#D9DCE0"/>
<path d="M48.6519 66.7132C48.6519 67.1993 48.4536 67.6418 48.1343 67.961C47.8151 68.2803 47.375 68.4786 46.8865 68.4786H20.7637C19.7915 68.4786 19.0007 67.6902 19.0007 66.7156C19.0007 66.481 19.0467 66.2537 19.1313 66.0506C19.3949 66.6938 20.0285 67.1461 20.7637 67.1461H46.8889C47.375 67.1461 47.8151 66.9478 48.1368 66.6285C48.3012 66.4641 48.4342 66.2682 48.5237 66.0506C48.6059 66.2537 48.6519 66.4786 48.6519 66.7132Z" fill="#BAC6D6"/>
<path d="M52.8284 43.5648L49.1525 64.0384C49.1018 64.3165 48.9591 64.5559 48.7535 64.7276C48.5504 64.8969 48.2868 64.9985 48.0063 64.9985H19.6465C19.0806 64.9985 18.5994 64.5946 18.5002 64.0384L17.8255 60.2707L14.8244 43.5648C14.6962 42.8514 15.2476 42.1961 15.9707 42.1961H51.6821C52.4052 42.1936 52.9566 42.849 52.8284 43.5648Z" fill="#D9DCE0"/>
<path d="M52.8283 43.5649L49.1525 64.0385C49.1017 64.3166 48.959 64.556 48.7535 64.7277C48.5503 64.897 48.2867 64.9985 48.0062 64.9985H19.6464C19.0806 64.9985 18.5993 64.5947 18.5002 64.0385L17.8254 60.2707C21.7407 62.3529 30.5749 63.4774 37.5493 60.9527C44.5286 58.4279 43.8201 47.2166 43.2082 42.1961H51.682C52.4051 42.1937 52.9565 42.8491 52.8283 43.5649Z" fill="#BAC6D6"/>
<path d="M71.1569 44.254C71.0602 44.4378 70.8474 44.6627 70.5499 44.907C68.92 46.2322 64.7266 47.9347 62.8742 44.2831C62.8427 44.2178 62.8089 44.1573 62.7774 44.092C62.1728 42.8756 61.752 41.6592 62.376 38.5347C63.0338 35.253 63.2224 34.5735 63.8318 34.5082C64.5767 34.426 65.4134 36.1817 65.1522 38.1429C65.1522 38.1429 66.2115 37.3183 67.3892 36.7887C67.7809 36.6097 68.1872 36.4622 68.5693 36.3872C68.5693 36.3872 68.5693 36.3872 68.5742 36.3872C68.949 36.3171 69.3021 36.3171 69.5995 36.4259C69.6648 36.4525 69.7253 36.4791 69.7785 36.5081H69.7833C70.5016 36.9047 69.9913 37.6931 69.5221 38.2155C69.5004 38.2372 69.4786 38.259 69.4617 38.2808L69.452 38.2904C69.2392 38.5178 69.0457 38.6822 68.9949 38.7257L68.9829 38.7378C69.1014 38.6991 70.8135 38.1067 71.2706 39.1997C71.5245 39.7874 70.2984 40.5854 69.8849 40.8394C69.8244 40.8781 69.7809 40.8998 69.764 40.9143C69.9163 40.8974 71.3601 40.7039 71.6285 41.3424C71.9115 42.0147 70.5354 43.0159 70.5354 43.0159C70.5354 43.0159 71.7833 43.0739 71.1569 44.254Z" fill="#FEFEFE"/>
<path d="M71.1569 44.2541C71.0601 44.4379 70.8473 44.6628 70.5499 44.9071C68.9199 46.2323 64.7265 47.9348 62.8741 44.2831C62.8426 44.2178 62.8088 44.1574 62.7773 44.0921C62.8088 44.0969 62.8378 44.0969 62.8692 44.0969C65.8897 44.0969 65.3674 39.4247 65.3674 39.4247L67.3891 36.7887C67.7809 36.6098 68.1871 36.4623 68.5692 36.3873C68.5692 36.3873 68.5692 36.3873 68.5741 36.3873C68.9175 36.4187 69.3359 36.4574 69.776 36.5082H69.7808C70.4991 36.9048 69.9888 37.6932 69.5196 38.2156C69.4979 38.2373 69.4761 38.2591 69.4592 38.2808L69.4495 38.2905C69.2367 38.5178 69.0432 38.6823 68.9925 38.7258L68.9804 38.7379C69.0989 38.6992 70.811 38.1067 71.2681 39.1998C71.522 39.7875 70.2959 40.5855 69.8824 40.8394C69.8219 40.8781 69.7784 40.8999 69.7615 40.9144C69.9138 40.8975 71.3576 40.704 71.626 41.3425C71.909 42.0147 70.5329 43.0159 70.5329 43.0159C70.5329 43.0159 71.7832 43.074 71.1569 44.2541Z" fill="#D1FFE8"/>
<path d="M20.863 64.1279C20.7155 65.2839 17.6345 65.1871 16.6237 64.3189C15.5693 63.4217 15.1412 62.2489 15.0421 61.0687C14.9816 60.3529 15.0372 59.6395 15.1412 58.9769C15.4072 57.3155 16.5172 55.7049 17.7748 55.8379C18.7639 55.937 18.2633 58.3433 18.2633 58.3433C18.2633 58.3433 19.8449 57.2018 20.5679 57.9732C21.2572 58.7133 19.4337 60.3263 19.2814 60.4617C19.3588 60.4278 20.0915 60.1183 20.7276 60.2005C20.9549 60.232 21.1725 60.3094 21.3418 60.4665C22.0165 61.0953 19.7989 62.8292 19.7989 62.8292C19.7989 62.8292 21.0057 62.9744 20.863 64.1279Z" fill="#FEFEFE"/>
<path d="M36.8215 17.0865C36.8215 17.0865 38.3861 18.9414 38.27 20.0417C38.154 21.1421 36.7634 19.8676 36.7634 19.8676C36.7634 19.8676 36.9956 21.4903 35.9509 22.0707C34.9086 22.6511 33.9799 20.5641 33.9799 20.5641C33.9799 20.5641 33.3995 21.9546 32.1831 22.1868C30.9667 22.4189 30.7926 19.2896 31.6027 17.5508C32.4177 15.8121 36.8215 17.0865 36.8215 17.0865Z" fill="#008744"/>
<path d="M30.8361 8.94645C30.8361 8.94645 27.9317 5.1932 28.8531 4.69502C29.7744 4.19927 31.3318 6.25243 31.3318 6.25243C31.3318 6.25243 30.6934 1.43512 32.749 0.160656C34.8046 -1.1138 35.6534 5.61399 35.6534 5.61399C35.6534 5.61399 36.2193 4.33953 36.9279 4.26698C37.6364 4.19443 37.4236 6.10975 37.4236 6.10975C37.4236 6.10975 38.6279 5.0481 39.4066 5.18836C40.1854 5.33104 39.7597 8.73121 39.7597 8.73121L38.1298 9.72273C38.1298 9.72273 35.2955 9.72273 34.8723 9.6526C34.4491 9.58247 30.8361 8.94645 30.8361 8.94645Z" fill="#008744"/>
<path d="M71.1569 44.2541C71.0602 44.4379 70.8474 44.6628 70.5499 44.9071C69.6963 45.0159 68.8644 44.9071 68.6056 44.4403C68.1002 43.5431 70.533 43.0159 70.533 43.0159C70.533 43.0159 71.7833 43.074 71.1569 44.2541Z" fill="#FEFEFE"/>
<path d="M70.5331 43.0183C67.7569 43.8817 66.8427 42.6773 67.2901 41.9591C67.7399 41.236 69.7399 40.8612 69.7399 40.8612L69.8826 40.8442C69.8221 40.8829 69.7786 40.9047 69.7617 40.9192C69.914 40.9023 71.3578 40.7088 71.6262 41.3473C71.9091 42.0147 70.5331 43.0183 70.5331 43.0183Z" fill="#FEFEFE"/>
<path d="M69.7615 40.9168C65.8172 42.525 65.8293 40.895 66.2259 40.1768C66.6225 39.4537 69.215 38.3558 69.215 38.3558L69.5197 38.2203C69.4979 38.2421 69.4761 38.2639 69.4592 38.2856L69.4495 38.2953C69.2367 38.5226 69.0433 38.6871 68.9925 38.7306L68.9804 38.7427C69.0989 38.704 70.8111 38.1115 71.2681 39.2046C71.5559 39.8745 69.9187 40.8249 69.7615 40.9168Z" fill="#FEFEFE"/>
<path d="M69.4593 38.2856L69.4497 38.2953L68.9926 38.7306L68.9757 38.7475C68.9757 38.7475 66.7798 40.2638 65.8947 40.1695C65.0096 40.0703 64.4655 39.56 65.1547 38.1477C65.1547 38.1477 68.0833 35.8769 69.5996 36.4307C70.6201 36.8031 69.9841 37.7221 69.4593 38.2856Z" fill="#FEFEFE"/>
<path d="M20.863 64.1279C20.7155 65.2838 17.6346 65.1871 16.6237 64.3189C15.5693 63.4217 15.1413 62.2488 15.0421 61.0687C15.5258 61.9804 16.3843 62.9985 17.8498 63.192C19.799 63.4483 20.4906 61.4145 20.73 60.2029C20.9573 60.2344 21.175 60.3117 21.3443 60.4689C22.019 61.0977 19.8014 62.8316 19.8014 62.8316C19.8014 62.8316 21.0057 62.9743 20.863 64.1279Z" fill="#D1FFE8"/>
<path d="M61.6577 22.2159L62.6226 23.9813L64.388 24.9462L62.6226 25.9135L61.6577 27.6765L60.6927 25.9135L58.9274 24.9462L60.6927 23.9813L61.6577 22.2159Z" fill="#FEFEFE"/>
<path d="M57.1186 56.6964L57.566 57.5162L58.3858 57.9636L57.566 58.4134L57.1186 59.2333L56.6688 58.4134L55.849 57.9636L56.6688 57.5162L57.1186 56.6964Z" fill="#FEFEFE"/>
<path d="M7.31545 42.9361L8.25135 44.6483L9.9611 45.5842L8.25135 46.5177L7.31545 48.2298L6.37956 46.5177L4.6698 45.5842L6.37956 44.6483L7.31545 42.9361Z" fill="#FEFEFE"/>
<path d="M5.2381 20.6827L7.09054 24.0708L10.4762 25.9232L7.09054 27.7757L5.2381 31.1613L3.38566 27.7757L0 25.9232L3.38566 24.0708L5.2381 20.6827Z" fill="#FEFEFE"/>
</svg>
