<svg width="151" height="14" viewBox="0 0 151 14" fill="none" xmlns="http://www.w3.org/2000/svg">
<g clip-path="url(#clip0_316_3)">
<path d="M5.625 2.25C2.6591 2.25 0.25 4.6591 0.25 7.625C0.25 10.5909 2.6591 13 5.625 13C8.5909 13 11 10.5909 11 7.625C11 4.6591 8.5909 2.25 5.625 2.25ZM5.625 12.1731C3.11667 12.1731 1.07692 10.1333 1.07692 7.625C1.07692 5.11667 3.11667 3.07692 5.625 3.07692C8.13333 3.07692 10.1731 5.11667 10.1731 7.625C10.1731 10.1333 8.13333 12.1731 5.625 12.1731Z" fill="#EF2B2D"/>
<path d="M5.62489 8.7C5.85091 8.7 6.03835 8.51256 6.03835 8.28654V5.41987C6.03835 5.19384 5.85091 5.00641 5.62489 5.00641C5.39886 5.00641 5.21143 5.19384 5.21143 5.41987V8.28654C5.21143 8.51256 5.39886 8.7 5.62489 8.7Z" fill="#EF2B2D"/>
<path d="M5.62511 10.3814C5.86868 10.3814 6.06613 10.1839 6.06613 9.94033C6.06613 9.69676 5.86868 9.49931 5.62511 9.49931C5.38154 9.49931 5.18408 9.69676 5.18408 9.94033C5.18408 10.1839 5.38154 10.3814 5.62511 10.3814Z" fill="#EF2B2D"/>
</g>
<rect x="0.275" y="2.275" width="10.45" height="10.45" rx="5.225" stroke="#EF2B2D" stroke-width="0.55"/>
<path d="M19.9258 11V2.41016H23.166C23.7363 2.41016 24.1719 2.4375 24.4727 2.49219C24.8945 2.5625 25.248 2.69727 25.5332 2.89648C25.8184 3.0918 26.0469 3.36719 26.2188 3.72266C26.3945 4.07812 26.4824 4.46875 26.4824 4.89453C26.4824 5.625 26.25 6.24414 25.7852 6.75195C25.3203 7.25586 24.4805 7.50781 23.2656 7.50781H21.0625V11H19.9258ZM21.0625 6.49414H23.2832C24.0176 6.49414 24.5391 6.35742 24.8477 6.08398C25.1562 5.81055 25.3105 5.42578 25.3105 4.92969C25.3105 4.57031 25.2188 4.26367 25.0352 4.00977C24.8555 3.75195 24.6172 3.58203 24.3203 3.5C24.1289 3.44922 23.7754 3.42383 23.2598 3.42383H21.0625V6.49414ZM31.8555 10.2324C31.4648 10.5645 31.0879 10.7988 30.7246 10.9355C30.3652 11.0723 29.9785 11.1406 29.5645 11.1406C28.8809 11.1406 28.3555 10.9746 27.9883 10.6426C27.6211 10.3066 27.4375 9.87891 27.4375 9.35938C27.4375 9.05469 27.5059 8.77734 27.6426 8.52734C27.7832 8.27344 27.9648 8.07031 28.1875 7.91797C28.4141 7.76562 28.668 7.65039 28.9492 7.57227C29.1562 7.51758 29.4688 7.46484 29.8867 7.41406C30.7383 7.3125 31.3652 7.19141 31.7676 7.05078C31.7715 6.90625 31.7734 6.81445 31.7734 6.77539C31.7734 6.3457 31.6738 6.04297 31.4746 5.86719C31.2051 5.62891 30.8047 5.50977 30.2734 5.50977C29.7773 5.50977 29.4102 5.59766 29.1719 5.77344C28.9375 5.94531 28.7637 6.25195 28.6504 6.69336L27.6191 6.55273C27.7129 6.11133 27.8672 5.75586 28.082 5.48633C28.2969 5.21289 28.6074 5.00391 29.0137 4.85938C29.4199 4.71094 29.8906 4.63672 30.4258 4.63672C30.957 4.63672 31.3887 4.69922 31.7207 4.82422C32.0527 4.94922 32.2969 5.10742 32.4531 5.29883C32.6094 5.48633 32.7188 5.72461 32.7812 6.01367C32.8164 6.19336 32.834 6.51758 32.834 6.98633V8.39258C32.834 9.37305 32.8555 9.99414 32.8984 10.2559C32.9453 10.5137 33.0352 10.7617 33.168 11H32.0664C31.957 10.7812 31.8867 10.5254 31.8555 10.2324ZM31.7676 7.87695C31.3848 8.0332 30.8105 8.16602 30.0449 8.27539C29.6113 8.33789 29.3047 8.4082 29.125 8.48633C28.9453 8.56445 28.8066 8.67969 28.709 8.83203C28.6113 8.98047 28.5625 9.14648 28.5625 9.33008C28.5625 9.61133 28.668 9.8457 28.8789 10.0332C29.0938 10.2207 29.4062 10.3145 29.8164 10.3145C30.2227 10.3145 30.584 10.2266 30.9004 10.0508C31.2168 9.87109 31.4492 9.62695 31.5977 9.31836C31.7109 9.08008 31.7676 8.72852 31.7676 8.26367V7.87695ZM34.0527 9.14258L35.0957 8.97852C35.1543 9.39648 35.3164 9.7168 35.582 9.93945C35.8516 10.1621 36.2266 10.2734 36.707 10.2734C37.1914 10.2734 37.5508 10.1758 37.7852 9.98047C38.0195 9.78125 38.1367 9.54883 38.1367 9.2832C38.1367 9.04492 38.0332 8.85742 37.8262 8.7207C37.6816 8.62695 37.3223 8.50781 36.748 8.36328C35.9746 8.16797 35.4375 8 35.1367 7.85938C34.8398 7.71484 34.6133 7.51758 34.457 7.26758C34.3047 7.01367 34.2285 6.73438 34.2285 6.42969C34.2285 6.15234 34.291 5.89648 34.416 5.66211C34.5449 5.42383 34.7188 5.22656 34.9375 5.07031C35.1016 4.94922 35.3242 4.84766 35.6055 4.76562C35.8906 4.67969 36.1953 4.63672 36.5195 4.63672C37.0078 4.63672 37.4355 4.70703 37.8027 4.84766C38.1738 4.98828 38.4473 5.17969 38.623 5.42188C38.7988 5.66016 38.9199 5.98047 38.9863 6.38281L37.9551 6.52344C37.9082 6.20312 37.7715 5.95312 37.5449 5.77344C37.3223 5.59375 37.0059 5.50391 36.5957 5.50391C36.1113 5.50391 35.7656 5.58398 35.5586 5.74414C35.3516 5.9043 35.248 6.0918 35.248 6.30664C35.248 6.44336 35.291 6.56641 35.377 6.67578C35.4629 6.78906 35.5977 6.88281 35.7812 6.95703C35.8867 6.99609 36.1973 7.08594 36.7129 7.22656C37.459 7.42578 37.9785 7.58984 38.2715 7.71875C38.5684 7.84375 38.8008 8.02734 38.9688 8.26953C39.1367 8.51172 39.2207 8.8125 39.2207 9.17188C39.2207 9.52344 39.1172 9.85547 38.9102 10.168C38.707 10.4766 38.4121 10.7168 38.0254 10.8887C37.6387 11.0566 37.2012 11.1406 36.7129 11.1406C35.9043 11.1406 35.2871 10.9727 34.8613 10.6367C34.4395 10.3008 34.1699 9.80273 34.0527 9.14258ZM40.0527 9.14258L41.0957 8.97852C41.1543 9.39648 41.3164 9.7168 41.582 9.93945C41.8516 10.1621 42.2266 10.2734 42.707 10.2734C43.1914 10.2734 43.5508 10.1758 43.7852 9.98047C44.0195 9.78125 44.1367 9.54883 44.1367 9.2832C44.1367 9.04492 44.0332 8.85742 43.8262 8.7207C43.6816 8.62695 43.3223 8.50781 42.748 8.36328C41.9746 8.16797 41.4375 8 41.1367 7.85938C40.8398 7.71484 40.6133 7.51758 40.457 7.26758C40.3047 7.01367 40.2285 6.73438 40.2285 6.42969C40.2285 6.15234 40.291 5.89648 40.416 5.66211C40.5449 5.42383 40.7188 5.22656 40.9375 5.07031C41.1016 4.94922 41.3242 4.84766 41.6055 4.76562C41.8906 4.67969 42.1953 4.63672 42.5195 4.63672C43.0078 4.63672 43.4355 4.70703 43.8027 4.84766C44.1738 4.98828 44.4473 5.17969 44.623 5.42188C44.7988 5.66016 44.9199 5.98047 44.9863 6.38281L43.9551 6.52344C43.9082 6.20312 43.7715 5.95312 43.5449 5.77344C43.3223 5.59375 43.0059 5.50391 42.5957 5.50391C42.1113 5.50391 41.7656 5.58398 41.5586 5.74414C41.3516 5.9043 41.248 6.0918 41.248 6.30664C41.248 6.44336 41.291 6.56641 41.377 6.67578C41.4629 6.78906 41.5977 6.88281 41.7812 6.95703C41.8867 6.99609 42.1973 7.08594 42.7129 7.22656C43.459 7.42578 43.9785 7.58984 44.2715 7.71875C44.5684 7.84375 44.8008 8.02734 44.9688 8.26953C45.1367 8.51172 45.2207 8.8125 45.2207 9.17188C45.2207 9.52344 45.1172 9.85547 44.9102 10.168C44.707 10.4766 44.4121 10.7168 44.0254 10.8887C43.6387 11.0566 43.2012 11.1406 42.7129 11.1406C41.9043 11.1406 41.2871 10.9727 40.8613 10.6367C40.4395 10.3008 40.1699 9.80273 40.0527 9.14258ZM47.623 11L45.7188 4.77734H46.8086L47.7988 8.36914L48.168 9.70508C48.1836 9.63867 48.291 9.21094 48.4902 8.42188L49.4805 4.77734H50.5645L51.4961 8.38672L51.8066 9.57617L52.1641 8.375L53.2305 4.77734H54.2559L52.3105 11H51.2148L50.2246 7.27344L49.9844 6.21289L48.7246 11H47.623ZM54.7539 7.88867C54.7539 6.73633 55.0742 5.88281 55.7148 5.32812C56.25 4.86719 56.9023 4.63672 57.6719 4.63672C58.5273 4.63672 59.2266 4.91797 59.7695 5.48047C60.3125 6.03906 60.584 6.8125 60.584 7.80078C60.584 8.60156 60.4629 9.23242 60.2207 9.69336C59.9824 10.1504 59.6328 10.5059 59.1719 10.7598C58.7148 11.0137 58.2148 11.1406 57.6719 11.1406C56.8008 11.1406 56.0957 10.8613 55.5566 10.3027C55.0215 9.74414 54.7539 8.93945 54.7539 7.88867ZM55.8379 7.88867C55.8379 8.68555 56.0117 9.2832 56.3594 9.68164C56.707 10.0762 57.1445 10.2734 57.6719 10.2734C58.1953 10.2734 58.6309 10.0742 58.9785 9.67578C59.3262 9.27734 59.5 8.66992 59.5 7.85352C59.5 7.08398 59.3242 6.50195 58.9727 6.10742C58.625 5.70898 58.1914 5.50977 57.6719 5.50977C57.1445 5.50977 56.707 5.70703 56.3594 6.10156C56.0117 6.49609 55.8379 7.0918 55.8379 7.88867ZM61.8145 11V4.77734H62.7637V5.7207C63.0059 5.2793 63.2285 4.98828 63.4316 4.84766C63.6387 4.70703 63.8652 4.63672 64.1113 4.63672C64.4668 4.63672 64.8281 4.75 65.1953 4.97656L64.832 5.95508C64.5742 5.80273 64.3164 5.72656 64.0586 5.72656C63.8281 5.72656 63.6211 5.79688 63.4375 5.9375C63.2539 6.07422 63.123 6.26562 63.0449 6.51172C62.9277 6.88672 62.8691 7.29688 62.8691 7.74219V11H61.8145ZM69.8594 11V10.2148C69.4648 10.832 68.8848 11.1406 68.1191 11.1406C67.623 11.1406 67.166 11.0039 66.748 10.7305C66.334 10.457 66.0117 10.0762 65.7812 9.58789C65.5547 9.0957 65.4414 8.53125 65.4414 7.89453C65.4414 7.27344 65.5449 6.71094 65.752 6.20703C65.959 5.69922 66.2695 5.31055 66.6836 5.04102C67.0977 4.77148 67.5605 4.63672 68.0723 4.63672C68.4473 4.63672 68.7812 4.7168 69.0742 4.87695C69.3672 5.0332 69.6055 5.23828 69.7891 5.49219V2.41016H70.8379V11H69.8594ZM66.5254 7.89453C66.5254 8.69141 66.6934 9.28711 67.0293 9.68164C67.3652 10.0762 67.7617 10.2734 68.2188 10.2734C68.6797 10.2734 69.0703 10.0859 69.3906 9.71094C69.7148 9.33203 69.877 8.75586 69.877 7.98242C69.877 7.13086 69.7129 6.50586 69.3848 6.10742C69.0566 5.70898 68.6523 5.50977 68.1719 5.50977C67.7031 5.50977 67.3105 5.70117 66.9941 6.08398C66.6816 6.4668 66.5254 7.07031 66.5254 7.89453ZM72.0801 9.14258L73.123 8.97852C73.1816 9.39648 73.3438 9.7168 73.6094 9.93945C73.8789 10.1621 74.2539 10.2734 74.7344 10.2734C75.2188 10.2734 75.5781 10.1758 75.8125 9.98047C76.0469 9.78125 76.1641 9.54883 76.1641 9.2832C76.1641 9.04492 76.0605 8.85742 75.8535 8.7207C75.709 8.62695 75.3496 8.50781 74.7754 8.36328C74.002 8.16797 73.4648 8 73.1641 7.85938C72.8672 7.71484 72.6406 7.51758 72.4844 7.26758C72.332 7.01367 72.2559 6.73438 72.2559 6.42969C72.2559 6.15234 72.3184 5.89648 72.4434 5.66211C72.5723 5.42383 72.7461 5.22656 72.9648 5.07031C73.1289 4.94922 73.3516 4.84766 73.6328 4.76562C73.918 4.67969 74.2227 4.63672 74.5469 4.63672C75.0352 4.63672 75.4629 4.70703 75.8301 4.84766C76.2012 4.98828 76.4746 5.17969 76.6504 5.42188C76.8262 5.66016 76.9473 5.98047 77.0137 6.38281L75.9824 6.52344C75.9355 6.20312 75.7988 5.95312 75.5723 5.77344C75.3496 5.59375 75.0332 5.50391 74.623 5.50391C74.1387 5.50391 73.793 5.58398 73.5859 5.74414C73.3789 5.9043 73.2754 6.0918 73.2754 6.30664C73.2754 6.44336 73.3184 6.56641 73.4043 6.67578C73.4902 6.78906 73.625 6.88281 73.8086 6.95703C73.9141 6.99609 74.2246 7.08594 74.7402 7.22656C75.4863 7.42578 76.0059 7.58984 76.2988 7.71875C76.5957 7.84375 76.8281 8.02734 76.9961 8.26953C77.1641 8.51172 77.248 8.8125 77.248 9.17188C77.248 9.52344 77.1445 9.85547 76.9375 10.168C76.7344 10.4766 76.4395 10.7168 76.0527 10.8887C75.666 11.0566 75.2285 11.1406 74.7402 11.1406C73.9316 11.1406 73.3145 10.9727 72.8887 10.6367C72.4668 10.3008 72.1973 9.80273 72.0801 9.14258ZM85.8789 11V10.2148C85.4844 10.832 84.9043 11.1406 84.1387 11.1406C83.6426 11.1406 83.1855 11.0039 82.7676 10.7305C82.3535 10.457 82.0312 10.0762 81.8008 9.58789C81.5742 9.0957 81.4609 8.53125 81.4609 7.89453C81.4609 7.27344 81.5645 6.71094 81.7715 6.20703C81.9785 5.69922 82.2891 5.31055 82.7031 5.04102C83.1172 4.77148 83.5801 4.63672 84.0918 4.63672C84.4668 4.63672 84.8008 4.7168 85.0938 4.87695C85.3867 5.0332 85.625 5.23828 85.8086 5.49219V2.41016H86.8574V11H85.8789ZM82.5449 7.89453C82.5449 8.69141 82.7129 9.28711 83.0488 9.68164C83.3848 10.0762 83.7812 10.2734 84.2383 10.2734C84.6992 10.2734 85.0898 10.0859 85.4102 9.71094C85.7344 9.33203 85.8965 8.75586 85.8965 7.98242C85.8965 7.13086 85.7324 6.50586 85.4043 6.10742C85.0762 5.70898 84.6719 5.50977 84.1914 5.50977C83.7227 5.50977 83.3301 5.70117 83.0137 6.08398C82.7012 6.4668 82.5449 7.07031 82.5449 7.89453ZM88.1289 7.88867C88.1289 6.73633 88.4492 5.88281 89.0898 5.32812C89.625 4.86719 90.2773 4.63672 91.0469 4.63672C91.9023 4.63672 92.6016 4.91797 93.1445 5.48047C93.6875 6.03906 93.959 6.8125 93.959 7.80078C93.959 8.60156 93.8379 9.23242 93.5957 9.69336C93.3574 10.1504 93.0078 10.5059 92.5469 10.7598C92.0898 11.0137 91.5898 11.1406 91.0469 11.1406C90.1758 11.1406 89.4707 10.8613 88.9316 10.3027C88.3965 9.74414 88.1289 8.93945 88.1289 7.88867ZM89.2129 7.88867C89.2129 8.68555 89.3867 9.2832 89.7344 9.68164C90.082 10.0762 90.5195 10.2734 91.0469 10.2734C91.5703 10.2734 92.0059 10.0742 92.3535 9.67578C92.7012 9.27734 92.875 8.66992 92.875 7.85352C92.875 7.08398 92.6992 6.50195 92.3477 6.10742C92 5.70898 91.5664 5.50977 91.0469 5.50977C90.5195 5.50977 90.082 5.70703 89.7344 6.10156C89.3867 6.49609 89.2129 7.0918 89.2129 7.88867ZM98.541 11V4.77734H99.4902V5.66211C99.9473 4.97852 100.607 4.63672 101.471 4.63672C101.846 4.63672 102.189 4.70508 102.502 4.8418C102.818 4.97461 103.055 5.15039 103.211 5.36914C103.367 5.58789 103.477 5.84766 103.539 6.14844C103.578 6.34375 103.598 6.68555 103.598 7.17383V11H102.543V7.21484C102.543 6.78516 102.502 6.46484 102.42 6.25391C102.338 6.03906 102.191 5.86914 101.98 5.74414C101.773 5.61523 101.529 5.55078 101.248 5.55078C100.799 5.55078 100.41 5.69336 100.082 5.97852C99.7578 6.26367 99.5957 6.80469 99.5957 7.60156V11H98.541ZM104.828 7.88867C104.828 6.73633 105.148 5.88281 105.789 5.32812C106.324 4.86719 106.977 4.63672 107.746 4.63672C108.602 4.63672 109.301 4.91797 109.844 5.48047C110.387 6.03906 110.658 6.8125 110.658 7.80078C110.658 8.60156 110.537 9.23242 110.295 9.69336C110.057 10.1504 109.707 10.5059 109.246 10.7598C108.789 11.0137 108.289 11.1406 107.746 11.1406C106.875 11.1406 106.17 10.8613 105.631 10.3027C105.096 9.74414 104.828 8.93945 104.828 7.88867ZM105.912 7.88867C105.912 8.68555 106.086 9.2832 106.434 9.68164C106.781 10.0762 107.219 10.2734 107.746 10.2734C108.27 10.2734 108.705 10.0742 109.053 9.67578C109.4 9.27734 109.574 8.66992 109.574 7.85352C109.574 7.08398 109.398 6.50195 109.047 6.10742C108.699 5.70898 108.266 5.50977 107.746 5.50977C107.219 5.50977 106.781 5.70703 106.434 6.10156C106.086 6.49609 105.912 7.0918 105.912 7.88867ZM114.203 10.0566L114.355 10.9883C114.059 11.0508 113.793 11.082 113.559 11.082C113.176 11.082 112.879 11.0215 112.668 10.9004C112.457 10.7793 112.309 10.6211 112.223 10.4258C112.137 10.2266 112.094 9.81055 112.094 9.17773V5.59766H111.32V4.77734H112.094V3.23633L113.143 2.60352V4.77734H114.203V5.59766H113.143V9.23633C113.143 9.53711 113.16 9.73047 113.195 9.81641C113.234 9.90234 113.295 9.9707 113.377 10.0215C113.463 10.0723 113.584 10.0977 113.74 10.0977C113.857 10.0977 114.012 10.084 114.203 10.0566ZM118.58 11V4.77734H119.523V5.65039C119.719 5.3457 119.979 5.10156 120.303 4.91797C120.627 4.73047 120.996 4.63672 121.41 4.63672C121.871 4.63672 122.248 4.73242 122.541 4.92383C122.838 5.11523 123.047 5.38281 123.168 5.72656C123.66 5 124.301 4.63672 125.09 4.63672C125.707 4.63672 126.182 4.80859 126.514 5.15234C126.846 5.49219 127.012 6.01758 127.012 6.72852V11H125.963V7.08008C125.963 6.6582 125.928 6.35547 125.857 6.17188C125.791 5.98438 125.668 5.83398 125.488 5.7207C125.309 5.60742 125.098 5.55078 124.855 5.55078C124.418 5.55078 124.055 5.69727 123.766 5.99023C123.477 6.2793 123.332 6.74414 123.332 7.38477V11H122.277V6.95703C122.277 6.48828 122.191 6.13672 122.02 5.90234C121.848 5.66797 121.566 5.55078 121.176 5.55078C120.879 5.55078 120.604 5.62891 120.35 5.78516C120.1 5.94141 119.918 6.16992 119.805 6.4707C119.691 6.77148 119.635 7.20508 119.635 7.77148V11H118.58ZM132.637 10.2324C132.246 10.5645 131.869 10.7988 131.506 10.9355C131.146 11.0723 130.76 11.1406 130.346 11.1406C129.662 11.1406 129.137 10.9746 128.77 10.6426C128.402 10.3066 128.219 9.87891 128.219 9.35938C128.219 9.05469 128.287 8.77734 128.424 8.52734C128.564 8.27344 128.746 8.07031 128.969 7.91797C129.195 7.76562 129.449 7.65039 129.73 7.57227C129.938 7.51758 130.25 7.46484 130.668 7.41406C131.52 7.3125 132.146 7.19141 132.549 7.05078C132.553 6.90625 132.555 6.81445 132.555 6.77539C132.555 6.3457 132.455 6.04297 132.256 5.86719C131.986 5.62891 131.586 5.50977 131.055 5.50977C130.559 5.50977 130.191 5.59766 129.953 5.77344C129.719 5.94531 129.545 6.25195 129.432 6.69336L128.4 6.55273C128.494 6.11133 128.648 5.75586 128.863 5.48633C129.078 5.21289 129.389 5.00391 129.795 4.85938C130.201 4.71094 130.672 4.63672 131.207 4.63672C131.738 4.63672 132.17 4.69922 132.502 4.82422C132.834 4.94922 133.078 5.10742 133.234 5.29883C133.391 5.48633 133.5 5.72461 133.562 6.01367C133.598 6.19336 133.615 6.51758 133.615 6.98633V8.39258C133.615 9.37305 133.637 9.99414 133.68 10.2559C133.727 10.5137 133.816 10.7617 133.949 11H132.848C132.738 10.7812 132.668 10.5254 132.637 10.2324ZM132.549 7.87695C132.166 8.0332 131.592 8.16602 130.826 8.27539C130.393 8.33789 130.086 8.4082 129.906 8.48633C129.727 8.56445 129.588 8.67969 129.49 8.83203C129.393 8.98047 129.344 9.14648 129.344 9.33008C129.344 9.61133 129.449 9.8457 129.66 10.0332C129.875 10.2207 130.188 10.3145 130.598 10.3145C131.004 10.3145 131.365 10.2266 131.682 10.0508C131.998 9.87109 132.23 9.62695 132.379 9.31836C132.492 9.08008 132.549 8.72852 132.549 8.26367V7.87695ZM137.559 10.0566L137.711 10.9883C137.414 11.0508 137.148 11.082 136.914 11.082C136.531 11.082 136.234 11.0215 136.023 10.9004C135.812 10.7793 135.664 10.6211 135.578 10.4258C135.492 10.2266 135.449 9.81055 135.449 9.17773V5.59766H134.676V4.77734H135.449V3.23633L136.498 2.60352V4.77734H137.559V5.59766H136.498V9.23633C136.498 9.53711 136.516 9.73047 136.551 9.81641C136.59 9.90234 136.65 9.9707 136.732 10.0215C136.818 10.0723 136.939 10.0977 137.096 10.0977C137.213 10.0977 137.367 10.084 137.559 10.0566ZM142.656 8.7207L143.693 8.85547C143.58 9.57031 143.289 10.1309 142.82 10.5371C142.355 10.9395 141.783 11.1406 141.104 11.1406C140.252 11.1406 139.566 10.8633 139.047 10.3086C138.531 9.75 138.273 8.95117 138.273 7.91211C138.273 7.24023 138.385 6.65234 138.607 6.14844C138.83 5.64453 139.168 5.26758 139.621 5.01758C140.078 4.76367 140.574 4.63672 141.109 4.63672C141.785 4.63672 142.338 4.80859 142.768 5.15234C143.197 5.49219 143.473 5.97656 143.594 6.60547L142.568 6.76367C142.471 6.3457 142.297 6.03125 142.047 5.82031C141.801 5.60938 141.502 5.50391 141.15 5.50391C140.619 5.50391 140.188 5.69531 139.855 6.07812C139.523 6.45703 139.357 7.05859 139.357 7.88281C139.357 8.71875 139.518 9.32617 139.838 9.70508C140.158 10.084 140.576 10.2734 141.092 10.2734C141.506 10.2734 141.852 10.1465 142.129 9.89258C142.406 9.63867 142.582 9.24805 142.656 8.7207ZM144.596 11V2.41016H145.65V5.49219C146.143 4.92188 146.764 4.63672 147.514 4.63672C147.975 4.63672 148.375 4.72852 148.715 4.91211C149.055 5.0918 149.297 5.3418 149.441 5.66211C149.59 5.98242 149.664 6.44727 149.664 7.05664V11H148.609V7.05664C148.609 6.5293 148.494 6.14648 148.264 5.9082C148.037 5.66602 147.715 5.54492 147.297 5.54492C146.984 5.54492 146.689 5.62695 146.412 5.79102C146.139 5.95117 145.943 6.16992 145.826 6.44727C145.709 6.72461 145.65 7.10742 145.65 7.5957V11H144.596Z" fill="#EF2B2D"/>
<defs>
<clipPath id="clip0_316_3">
<rect y="2" width="11" height="11" rx="5.5" fill="white"/>
</clipPath>
</defs>
</svg>
