<svg width="19" height="19" viewBox="0 0 19 19" fill="none" xmlns="http://www.w3.org/2000/svg">
<path d="M7.02667 10.36C6.96418 10.422 6.91459 10.4957 6.88074 10.577C6.84689 10.6582 6.82947 10.7454 6.82947 10.8334C6.82947 10.9214 6.84689 11.0085 6.88074 11.0898C6.91459 11.171 6.96418 11.2447 7.02667 11.3067L9.02667 13.3067C9.08864 13.3692 9.16238 13.4188 9.24362 13.4526C9.32486 13.4865 9.41199 13.5039 9.5 13.5039C9.58801 13.5039 9.67515 13.4865 9.75638 13.4526C9.83762 13.4188 9.91136 13.3692 9.97333 13.3067L11.9733 11.3067C12.0989 11.1812 12.1694 11.0109 12.1694 10.8334C12.1694 10.6558 12.0989 10.4856 11.9733 10.36C11.8478 10.2345 11.6775 10.164 11.5 10.164C11.3225 10.164 11.1522 10.2345 11.0267 10.36L10.1667 11.2267V3.50004C10.1667 3.32323 10.0964 3.15366 9.9714 3.02864C9.84638 2.90361 9.67681 2.83337 9.5 2.83337C9.32319 2.83337 9.15362 2.90361 9.0286 3.02864C8.90357 3.15366 8.83333 3.32323 8.83333 3.50004V11.2267L7.97333 10.36C7.91136 10.2976 7.83762 10.248 7.75638 10.2141C7.67515 10.1803 7.58801 10.1628 7.5 10.1628C7.41199 10.1628 7.32486 10.1803 7.24362 10.2141C7.16238 10.248 7.08864 10.2976 7.02667 10.36ZM13.5 7.50004H12.1667C11.9899 7.50004 11.8203 7.57028 11.6953 7.6953C11.5702 7.82033 11.5 7.9899 11.5 8.16671C11.5 8.34352 11.5702 8.51309 11.6953 8.63811C11.8203 8.76314 11.9899 8.83337 12.1667 8.83337H13.5C13.6768 8.83337 13.8464 8.90361 13.9714 9.02864C14.0964 9.15366 14.1667 9.32323 14.1667 9.50004V14.1667C14.1667 14.3435 14.0964 14.5131 13.9714 14.6381C13.8464 14.7631 13.6768 14.8334 13.5 14.8334H5.5C5.32319 14.8334 5.15362 14.7631 5.0286 14.6381C4.90357 14.5131 4.83333 14.3435 4.83333 14.1667V9.50004C4.83333 9.32323 4.90357 9.15366 5.0286 9.02864C5.15362 8.90361 5.32319 8.83337 5.5 8.83337H6.83333C7.01014 8.83337 7.17971 8.76314 7.30474 8.63811C7.42976 8.51309 7.5 8.34352 7.5 8.16671C7.5 7.9899 7.42976 7.82033 7.30474 7.6953C7.17971 7.57028 7.01014 7.50004 6.83333 7.50004H5.5C4.96957 7.50004 4.46086 7.71075 4.08579 8.08583C3.71071 8.4609 3.5 8.96961 3.5 9.50004V14.1667C3.5 14.6971 3.71071 15.2058 4.08579 15.5809C4.46086 15.956 4.96957 16.1667 5.5 16.1667H13.5C14.0304 16.1667 14.5391 15.956 14.9142 15.5809C15.2893 15.2058 15.5 14.6971 15.5 14.1667V9.50004C15.5 8.96961 15.2893 8.4609 14.9142 8.08583C14.5391 7.71075 14.0304 7.50004 13.5 7.50004Z" fill="#FF7543"/>
</svg>
