<svg width="21" height="21" viewBox="0 0 21 21" fill="none" xmlns="http://www.w3.org/2000/svg">
<rect width="21" height="21" rx="6.59227" fill="#D1FFE8"/>
<path d="M14 8.16675H13.4166V7.58341C13.4166 6.80987 13.1093 6.068 12.5624 5.52102C12.0154 4.97404 11.2735 4.66675 10.5 4.66675C9.72642 4.66675 8.98456 4.97404 8.43757 5.52102C7.89059 6.068 7.5833 6.80987 7.5833 7.58341V8.16675H6.99997C6.84526 8.16675 6.69689 8.22821 6.58749 8.3376C6.47809 8.447 6.41664 8.59537 6.41664 8.75008V13.2791C6.41553 13.6043 6.50554 13.9234 6.67648 14.2001C6.84742 14.4768 7.09245 14.7002 7.3838 14.8447L10.2392 16.2722C10.3203 16.3127 10.4096 16.3338 10.5003 16.3338C10.5909 16.3338 10.6803 16.3127 10.7613 16.2722L13.6167 14.8447C13.908 14.7001 14.1529 14.4767 14.3237 14.2C14.4945 13.9233 14.5845 13.6043 14.5833 13.2791V8.75008C14.5833 8.59537 14.5218 8.447 14.4124 8.3376C14.3031 8.22821 14.1547 8.16675 14 8.16675ZM8.74997 7.58341C8.74997 7.11929 8.93434 6.67417 9.26253 6.34598C9.59072 6.01779 10.0358 5.83341 10.5 5.83341C10.9641 5.83341 11.4092 6.01779 11.7374 6.34598C12.0656 6.67417 12.25 7.11929 12.25 7.58341V8.16675H8.74997V7.58341ZM13.4166 13.2791C13.4171 13.3876 13.3871 13.494 13.3301 13.5863C13.2731 13.6786 13.1913 13.753 13.0941 13.8012L10.5 15.0979L7.90589 13.8006C7.80875 13.7525 7.72703 13.6781 7.67002 13.586C7.613 13.4938 7.58296 13.3875 7.5833 13.2791V9.33341H13.4166V13.2791Z" fill="#008744"/>
<path d="M10.5 10.5C10.3452 10.5 10.1969 10.5615 10.0875 10.6709C9.97808 10.7803 9.91663 10.9286 9.91663 11.0833V12.25C9.91663 12.4047 9.97808 12.5531 10.0875 12.6625C10.1969 12.7719 10.3452 12.8333 10.5 12.8333C10.6547 12.8333 10.803 12.7719 10.9124 12.6625C11.0218 12.5531 11.0833 12.4047 11.0833 12.25V11.0833C11.0833 10.9286 11.0218 10.7803 10.9124 10.6709C10.803 10.5615 10.6547 10.5 10.5 10.5Z" fill="#008744"/>
</svg>
