<svg width="21" height="21" viewBox="0 0 21 21" fill="none" xmlns="http://www.w3.org/2000/svg">
<rect width="21" height="21" rx="6.59227" fill="#D1FFE8"/>
<path d="M7.58329 15.75C7.42858 15.75 7.28021 15.6885 7.17081 15.5791C7.06142 15.4698 6.99996 15.3214 6.99996 15.1667V13.4167H6.41663C5.9525 13.4167 5.50738 13.2323 5.17919 12.9041C4.851 12.5759 4.66663 12.1308 4.66663 11.6667V7C4.66663 6.53587 4.851 6.09075 5.17919 5.76256C5.50738 5.43437 5.9525 5.25 6.41663 5.25H14.5833C15.0474 5.25 15.4925 5.43437 15.8207 5.76256C16.1489 6.09075 16.3333 6.53587 16.3333 7V11.6667C16.3333 12.1308 16.1489 12.5759 15.8207 12.9041C15.4925 13.2323 15.0474 13.4167 14.5833 13.4167H9.79996L8.04996 15.54C7.99325 15.6082 7.92175 15.6625 7.84088 15.6989C7.76002 15.7353 7.67192 15.7528 7.58329 15.75ZM6.41663 6.41667C6.26192 6.41667 6.11354 6.47812 6.00415 6.58752C5.89475 6.69692 5.83329 6.84529 5.83329 7V11.6667C5.83329 11.8214 5.89475 11.9697 6.00415 12.0791C6.11354 12.1885 6.26192 12.25 6.41663 12.25H7.58329C7.738 12.25 7.88638 12.3115 7.99577 12.4209C8.10517 12.5303 8.16663 12.6786 8.16663 12.8333V13.5567L9.07663 12.46C9.13147 12.3942 9.20015 12.3412 9.27779 12.3049C9.35542 12.2686 9.44009 12.2499 9.52579 12.25H14.5833C14.738 12.25 14.8864 12.1885 14.9958 12.0791C15.1052 11.9697 15.1666 11.8214 15.1666 11.6667V7C15.1666 6.84529 15.1052 6.69692 14.9958 6.58752C14.8864 6.47812 14.738 6.41667 14.5833 6.41667H6.41663Z" fill="#008744"/>
<path d="M8.75 9.91667H7.58333C7.42862 9.91667 7.28025 9.85521 7.17085 9.74581C7.06146 9.63642 7 9.48804 7 9.33333C7 9.17862 7.06146 9.03025 7.17085 8.92085C7.28025 8.81146 7.42862 8.75 7.58333 8.75H8.75C8.90471 8.75 9.05308 8.81146 9.16248 8.92085C9.27187 9.03025 9.33333 9.17862 9.33333 9.33333C9.33333 9.48804 9.27187 9.63642 9.16248 9.74581C9.05308 9.85521 8.90471 9.91667 8.75 9.91667ZM13.4167 9.91667H12.25C12.0953 9.91667 11.9469 9.85521 11.8375 9.74581C11.7281 9.63642 11.6667 9.48804 11.6667 9.33333C11.6667 9.17862 11.7281 9.03025 11.8375 8.92085C11.9469 8.81146 12.0953 8.75 12.25 8.75H13.4167C13.5714 8.75 13.7197 8.81146 13.8291 8.92085C13.9385 9.03025 14 9.17862 14 9.33333C14 9.48804 13.9385 9.63642 13.8291 9.74581C13.7197 9.85521 13.5714 9.91667 13.4167 9.91667Z" fill="#008744"/>
</svg>
