<svg width="57" height="29" viewBox="0 0 57 29" fill="none" xmlns="http://www.w3.org/2000/svg">
<path fill-rule="evenodd" clip-rule="evenodd" d="M28.3784 17.5132C30.1819 17.5132 31.644 16.0511 31.644 14.2476C31.644 12.444 30.1819 10.9819 28.3784 10.9819C26.5749 10.9819 25.1128 12.444 25.1128 14.2476C25.1128 16.0511 26.5749 17.5132 28.3784 17.5132ZM28.3784 16.3257C27.8273 16.3257 27.2987 16.1067 26.909 15.717C26.5192 15.3273 26.3003 14.7987 26.3003 14.2476C26.3003 13.6964 26.5192 13.1678 26.909 12.7781C27.2987 12.3884 27.8273 12.1694 28.3784 12.1694C28.9296 12.1694 29.4582 12.3884 29.8479 12.7781C30.2376 13.1678 30.4565 13.6964 30.4565 14.2476C30.4565 14.7987 30.2376 15.3273 29.8479 15.717C29.4582 16.1067 28.9296 16.3257 28.3784 16.3257Z" fill="#49454F"/>
<path fill-rule="evenodd" clip-rule="evenodd" d="M21.0278 13.2127C20.9351 13.8766 20.9321 14.55 21.0189 15.2148C21.0471 15.433 21.0735 15.5348 21.0735 15.5348L19.9504 16.6641L20.0386 16.5911C19.5105 16.9488 19.3442 17.6729 19.6634 18.2263L20.554 19.7688C20.8746 20.324 21.5824 20.5407 22.1574 20.2614L22.0499 20.3011L23.3087 19.9677L23.5628 19.8956C24.1297 20.3795 24.7662 20.7752 25.4509 21.0694C25.6763 21.1665 25.8295 21.2179 25.8295 21.2179L26.2362 22.718L26.2172 22.6052C26.2626 23.2411 26.8065 23.7476 27.4451 23.7476H29.2266C29.8678 23.7476 30.4091 23.2429 30.4548 22.6052L30.4355 22.718L30.8333 21.2535C31.5687 20.9956 32.2588 20.6232 32.8782 20.15C33.0643 20.0078 33.1661 19.9155 33.1661 19.9155L34.6217 20.3014L34.5142 20.2614C35.0878 20.5398 35.7985 20.3222 36.1177 19.7688L37.0083 18.2263C37.3289 17.6711 37.1627 16.9497 36.633 16.5914L36.7215 16.6644L35.6756 15.6075C35.8265 14.7918 35.8405 13.9567 35.7172 13.1364C35.7051 13.0512 35.6915 12.9663 35.6765 12.8816L36.7215 11.8307L36.633 11.9037C37.1615 11.5463 37.3277 10.8222 37.0086 10.2688L36.118 8.72628C35.7973 8.17112 35.0896 7.9544 34.5142 8.23376L34.6217 8.19398L33.1804 8.58853C32.5787 8.07719 31.8992 7.66519 31.1676 7.36807C30.9541 7.28139 30.8348 7.24932 30.8348 7.24932L30.4355 5.77682L30.4548 5.88993C30.4093 5.25403 29.8655 4.74756 29.2266 4.74756H27.4453C26.8041 4.74756 26.2626 5.25225 26.2172 5.88993L26.2362 5.77712L25.8413 7.2704C25.1229 7.53195 24.4511 7.90275 23.8478 8.36825C23.6649 8.50926 23.5747 8.59773 23.5747 8.59773L22.0499 8.19398L22.1574 8.23376C21.5841 7.95529 20.8734 8.1729 20.5543 8.72628L19.6631 10.2688C19.3424 10.824 19.5087 11.5454 20.0383 11.9037L19.9501 11.8307L21.0714 12.9585C21.0714 12.9585 21.0548 13.0176 21.0275 13.2127H21.0278ZM22.1334 12.3422L20.7924 10.9935C20.7654 10.9663 20.7359 10.9417 20.7042 10.9202C20.6903 10.911 20.6828 10.878 20.6917 10.8626L21.5824 9.32003C21.5904 9.30637 21.6254 9.29539 21.6388 9.30221C21.6731 9.31889 21.709 9.33221 21.7459 9.342L23.5717 9.82531C23.6688 9.85104 23.7708 9.85174 23.8682 9.82734C23.9656 9.80294 24.0552 9.75423 24.1287 9.68578C24.8061 9.05362 25.6161 8.58058 26.4995 8.30115C26.5944 8.27118 26.6802 8.21785 26.7491 8.14606C26.818 8.07427 26.8677 7.98631 26.8938 7.89028L27.3824 6.08765C27.3924 6.05075 27.3987 6.01297 27.4014 5.97484C27.4026 5.95792 27.4275 5.93506 27.4451 5.93506H29.2266C29.2423 5.93506 29.2693 5.96 29.2702 5.97454C29.273 6.01278 29.2795 6.05066 29.2895 6.08765L29.7705 7.86178C29.7968 7.95922 29.8476 8.04833 29.918 8.12069C29.9884 8.19305 30.0761 8.24627 30.1727 8.27532C31.0809 8.5484 31.9146 9.02534 32.6104 9.66975C32.6838 9.7377 32.7731 9.78601 32.8702 9.81019C32.9672 9.83438 33.0688 9.83366 33.1655 9.80809L34.926 9.342C34.9629 9.33212 34.9988 9.3187 35.0332 9.30192C35.048 9.29479 35.0807 9.30459 35.0896 9.31973L35.9802 10.8626C35.9879 10.8762 35.9799 10.9122 35.9677 10.9202C35.9359 10.9417 35.9063 10.9663 35.8793 10.9935L34.6072 12.273C34.5362 12.3444 34.4845 12.4326 34.457 12.5294C34.4295 12.6262 34.427 12.7284 34.4498 12.8264C34.5576 13.2884 34.6125 13.7642 34.6125 14.2476C34.6125 14.7309 34.5576 15.2065 34.4498 15.6687C34.427 15.7667 34.4295 15.8689 34.457 15.9657C34.4845 16.0625 34.5362 16.1507 34.6072 16.2221L35.8793 17.5016C35.9063 17.5289 35.9359 17.5534 35.9677 17.5749C35.9814 17.5841 35.9891 17.6171 35.9802 17.6325L35.0896 19.1751C35.0816 19.1887 35.0465 19.1997 35.0332 19.1929C34.9987 19.1762 34.9627 19.1629 34.9257 19.1531L33.1655 18.687C33.0688 18.6615 32.9672 18.6607 32.8702 18.6849C32.7731 18.7091 32.6838 18.7574 32.6104 18.8254C31.9147 19.4697 31.0811 19.9467 30.173 20.2198C30.0763 20.2488 29.9886 20.302 29.9181 20.3744C29.8477 20.4467 29.7969 20.5359 29.7705 20.6333L29.2895 22.4075C29.2795 22.4444 29.273 22.4821 29.2702 22.5203C29.2691 22.5372 29.2444 22.5601 29.2266 22.5601H27.4453C27.4293 22.5601 27.4026 22.5351 27.4014 22.5206C27.3987 22.4823 27.3924 22.4445 27.3824 22.4075L26.8938 20.6048C26.8677 20.5088 26.818 20.4208 26.7491 20.3491C26.6802 20.2773 26.5944 20.2239 26.4995 20.194C25.6161 19.9145 24.8061 19.4415 24.1287 18.8093C24.0552 18.7409 23.9656 18.6922 23.8682 18.6678C23.7708 18.6434 23.6688 18.6441 23.5717 18.6698L21.7459 19.1531C21.7089 19.163 21.6729 19.1764 21.6385 19.1932C21.6236 19.2003 21.5913 19.1905 21.5824 19.1754L20.6917 17.6325C20.6837 17.6189 20.692 17.5829 20.7042 17.5749C20.7359 17.5534 20.7654 17.5288 20.7924 17.5016L22.1334 16.1529C22.2035 16.0823 22.2548 15.9952 22.2825 15.8996C22.3102 15.804 22.3135 15.7029 22.2919 15.6058C22.1942 15.1634 22.1438 14.7092 22.1438 14.2476C22.1438 13.7862 22.1936 13.3317 22.2922 12.8894C22.3137 12.7922 22.3104 12.6911 22.2827 12.5955C22.2549 12.4999 22.2036 12.4128 22.1334 12.3422Z" fill="#49454F"/>
</svg>
