<svg width="21" height="21" viewBox="0 0 21 21" fill="none" xmlns="http://www.w3.org/2000/svg">
<rect width="21" height="21" rx="6.59227" fill="#D1FFE8"/>
<path d="M5.11792 14.9533C4.77054 15.3768 4.08337 15.1312 4.08337 14.5835C4.08337 12.1028 5.08758 10.3257 6.83379 9.20512C7.92171 8.50687 9.19221 8.11983 10.5 7.95766V5.54179C10.5 5.03021 11.112 4.76625 11.4838 5.11771L16.7338 10.076C16.7916 10.1306 16.8376 10.1963 16.869 10.2692C16.9004 10.3421 16.9166 10.4207 16.9166 10.5001C16.9166 10.5795 16.9004 10.6581 16.869 10.731C16.8376 10.8039 16.7916 10.8697 16.7338 10.9242L11.4838 15.8825C11.112 16.234 10.5 15.97 10.5 15.4585V12.8463C8.22212 12.9819 6.21079 13.6195 5.11792 14.9533ZM11.0708 11.6557C11.1485 11.654 11.2257 11.6679 11.2979 11.6965C11.3701 11.725 11.4359 11.7677 11.4914 11.8221C11.5469 11.8764 11.591 11.9413 11.6211 12.0129C11.6512 12.0845 11.6667 12.1614 11.6667 12.239V14.1051L15.4837 10.5001L11.6667 6.89512V8.485C11.6667 8.63188 11.6113 8.77336 11.5115 8.88117C11.4118 8.98899 11.275 9.0552 11.1286 9.06658C9.80879 9.16925 8.51233 9.514 7.46379 10.1869C6.40329 10.8673 5.69046 11.8284 5.39879 13.1394C6.87987 12.1308 8.89237 11.7032 11.0708 11.6557Z" fill="#008744"/>
</svg>
