<svg width="18" height="18" viewBox="0 0 18 18" fill="none" xmlns="http://www.w3.org/2000/svg">
<path d="M8.75001 13.4148C7.49374 13.4183 6.26174 13.069 5.19417 12.4068C4.1266 11.7446 3.26634 10.7961 2.71125 9.66908C2.57213 9.38801 2.49976 9.07863 2.49976 8.76501C2.49976 8.45139 2.57213 8.14201 2.71125 7.86094C3.2692 6.73626 4.13014 5.78975 5.19708 5.12804C6.26401 4.46633 7.49454 4.11572 8.75001 4.11572C10.0055 4.11572 11.236 4.46633 12.3029 5.12804C13.3699 5.78975 14.2308 6.73626 14.7888 7.86094C14.9277 8.14206 15 8.45142 15 8.76501C15 9.0786 14.9277 9.38796 14.7888 9.66908C14.2337 10.7961 13.3734 11.7446 12.3058 12.4068C11.2383 13.069 10.0063 13.4183 8.75001 13.4148ZM8.75001 5.00809C7.66001 5.00525 6.59108 5.30835 5.66481 5.88293C4.73854 6.45751 3.99211 7.28049 3.5104 8.25828C3.43252 8.41569 3.392 8.58894 3.392 8.76456C3.392 8.94019 3.43252 9.11344 3.5104 9.27084C3.99418 10.247 4.74103 11.0686 5.66674 11.643C6.59245 12.2174 7.66021 12.5217 8.74965 12.5218C9.83908 12.5218 10.9069 12.2175 11.8326 11.6432C12.7584 11.0689 13.5053 10.2474 13.9892 9.27129C14.067 9.11387 14.1075 8.94062 14.1075 8.76501C14.1075 8.5894 14.067 8.41615 13.9892 8.25873C13.5075 7.28097 12.7612 6.45801 11.835 5.88343C10.9088 5.30885 9.83994 5.00528 8.75001 5.00809Z" fill="#008744"/>
<path d="M8.75002 11.4438C8.22022 11.4438 7.70231 11.2867 7.2618 10.9923C6.82128 10.698 6.47794 10.2796 6.2752 9.79015C6.07245 9.30067 6.0194 8.76207 6.12276 8.24244C6.22612 7.72282 6.48125 7.24552 6.85587 6.87089C7.2305 6.49626 7.70781 6.24114 8.22743 6.13778C8.74705 6.03442 9.28566 6.08746 9.77513 6.29021C10.2646 6.49296 10.683 6.8363 10.9773 7.27681C11.2717 7.71733 11.4288 8.23523 11.4288 8.76504C11.4279 9.47523 11.1454 10.1561 10.6433 10.6583C10.1411 11.1605 9.46021 11.4429 8.75002 11.4438ZM8.75002 6.97922C8.39682 6.97922 8.05155 7.08395 7.75787 7.28018C7.4642 7.47641 7.2353 7.75532 7.10014 8.08163C6.96497 8.40795 6.92961 8.76702 6.99852 9.11344C7.06742 9.45985 7.2375 9.77805 7.48726 10.0278C7.73701 10.2776 8.05521 10.4476 8.40163 10.5165C8.74804 10.5855 9.10711 10.5501 9.43343 10.4149C9.75974 10.2798 10.0387 10.0509 10.2349 9.75719C10.4311 9.46351 10.5358 9.11824 10.5358 8.76504C10.5354 8.29155 10.3471 7.8376 10.0123 7.50279C9.67746 7.16799 9.22351 6.97969 8.75002 6.97922Z" fill="#008744"/>
</svg>
