<svg width="61" height="61" viewBox="0 0 61 61" fill="none" xmlns="http://www.w3.org/2000/svg">
<g clip-path="url(#clip0_101_1589)">
<rect width="61" height="61" rx="14" fill="#D1FFE8"/>
<path d="M30.5 43C38.5081 43 45 36.2843 45 28C45 19.7157 38.5081 13 30.5 13C22.4919 13 16 19.7157 16 28C16 36.2843 22.4919 43 30.5 43Z" stroke="#81D7AC" stroke-width="2.41207" stroke-linecap="round" stroke-linejoin="round"/>
<path d="M8 55.9995C10.2812 52.0469 13.5613 48.7648 17.5108 46.483C21.4602 44.2012 25.94 43 30.5001 43C35.0602 43 39.54 44.2014 43.4894 46.4833C47.4389 48.7652 50.7189 52.0473 53 56" stroke="#81D7AC" stroke-width="2.41207" stroke-linecap="round" stroke-linejoin="round"/>
</g>
<rect x="0.5" y="0.5" width="60" height="60" rx="13.5" stroke="#81D7AC"/>
<defs>
<clipPath id="clip0_101_1589">
<rect width="61" height="61" rx="14" fill="white"/>
</clipPath>
</defs>
</svg>
