<svg width="24" height="24" viewBox="0 0 24 24" fill="none" xmlns="http://www.w3.org/2000/svg">
<path d="M12 19.8113C9.88964 19.817 7.82 19.2303 6.02659 18.1179C4.23318 17.0055 2.78802 15.412 1.85553 13.5188C1.62183 13.0466 1.50024 12.5269 1.50024 12C1.50024 11.4732 1.62183 10.9534 1.85553 10.4813C2.79283 8.59194 4.23913 7.00189 6.03147 5.89028C7.82381 4.77868 9.89097 4.1897 12 4.1897C14.1091 4.1897 16.1762 4.77868 17.9686 5.89028C19.7609 7.00189 21.2072 8.59194 22.1445 10.4813C22.378 10.9535 22.4994 11.4732 22.4994 12C22.4994 12.5268 22.378 13.0465 22.1445 13.5188C21.212 15.412 19.7669 17.0055 17.9735 18.1179C16.1801 19.2303 14.1104 19.817 12 19.8113ZM12 5.68878C10.1689 5.68401 8.37326 6.1932 6.81722 7.15843C5.26118 8.12366 4.00725 9.50619 3.19803 11.1488C3.06719 11.4132 2.99912 11.7043 2.99912 11.9993C2.99912 12.2943 3.06719 12.5854 3.19803 12.8498C4.01073 14.4896 5.26535 15.8697 6.82045 16.8347C8.37555 17.7996 10.1693 18.3109 11.9994 18.311C13.8296 18.3111 15.6233 17.7999 17.1785 16.8351C18.7337 15.8703 19.9884 14.4903 20.8013 12.8505C20.932 12.5861 21 12.295 21 12C21 11.705 20.932 11.414 20.8013 11.1495C19.9922 9.507 18.7384 8.1245 17.1825 7.15926C15.6266 6.19403 13.831 5.68406 12 5.68878Z" fill="#FF6D37"/>
<path d="M12 16.5C11.11 16.5 10.24 16.2361 9.49994 15.7416C8.75991 15.2471 8.18314 14.5443 7.84254 13.7221C7.50195 12.8998 7.41283 11.995 7.58647 11.1221C7.7601 10.2492 8.18869 9.44736 8.81802 8.81802C9.44736 8.18869 10.2492 7.7601 11.1221 7.58647C11.995 7.41283 12.8998 7.50195 13.7221 7.84254C14.5443 8.18314 15.2471 8.75991 15.7416 9.49994C16.2361 10.24 16.5 11.11 16.5 12C16.4986 13.193 16.0241 14.3368 15.1804 15.1804C14.3368 16.0241 13.193 16.4986 12 16.5ZM12 9C11.4067 9 10.8266 9.17595 10.3333 9.50559C9.83994 9.83524 9.45543 10.3038 9.22836 10.852C9.0013 11.4001 8.94189 12.0033 9.05765 12.5853C9.1734 13.1672 9.45912 13.7018 9.87868 14.1213C10.2982 14.5409 10.8328 14.8266 11.4147 14.9424C11.9967 15.0581 12.5999 14.9987 13.1481 14.7716C13.6962 14.5446 14.1648 14.1601 14.4944 13.6667C14.8241 13.1734 15 12.5933 15 12C14.9992 11.2046 14.6829 10.442 14.1204 9.87956C13.558 9.31712 12.7954 9.0008 12 9Z" fill="#FF6D37"/>
</svg>
